<svg width="15" height="17" viewBox="0 0 15 17" fill="none" xmlns="http://www.w3.org/2000/svg">
<path d="M11.6562 4.9375H14.0312C14.3578 4.9375 14.625 4.67031 14.625 4.34375V0.78125C14.625 0.454688 14.3578 0.1875 14.0312 0.1875H11.6562C11.3297 0.1875 11.0625 0.454688 11.0625 0.78125V1.96875H9.17437C8.925 1.28 8.27187 0.78125 7.5 0.78125C6.72813 0.78125 6.075 1.28 5.82563 1.96875H3.9375V0.78125C3.9375 0.454688 3.67031 0.1875 3.34375 0.1875H0.96875C0.642188 0.1875 0.375 0.454688 0.375 0.78125V4.34375C0.375 4.67031 0.642188 4.9375 0.96875 4.9375H3.34375C3.67031 4.9375 3.9375 4.67031 3.9375 4.34375V3.15625H5.82563C6.00375 3.66094 6.40156 4.05281 6.90625 4.23687V12.7691C6.40156 12.9472 6.00969 13.345 5.82563 13.8497H3.9375V12.6622C3.9375 12.3356 3.67031 12.0684 3.34375 12.0684H0.96875C0.642188 12.0684 0.375 12.3356 0.375 12.6622V16.2247C0.375 16.5513 0.642188 16.8184 0.96875 16.8184H3.34375C3.67031 16.8184 3.9375 16.5513 3.9375 16.2247V15.0372H5.82563C6.06906 15.7259 6.72219 16.2247 7.5 16.2247C8.27781 16.2247 8.925 15.7259 9.17437 15.0372H11.0625V16.2247C11.0625 16.5513 11.3297 16.8184 11.6562 16.8184H14.0312C14.3578 16.8184 14.625 16.5513 14.625 16.2247V12.6622C14.625 12.3356 14.3578 12.0684 14.0312 12.0684H11.6562C11.3297 12.0684 11.0625 12.3356 11.0625 12.6622V13.8497H9.17437C8.99625 13.345 8.59844 12.9531 8.09375 12.7691V4.23687C8.59844 4.05875 8.99031 3.66094 9.17437 3.15625H11.0625V4.34375C11.0625 4.67031 11.3297 4.9375 11.6562 4.9375ZM12.25 1.375H13.4375V3.75H12.25V1.375ZM2.75 3.75H1.5625V1.375H2.75V3.75ZM2.75 15.625H1.5625V13.25H2.75V15.625ZM12.25 13.25H13.4375V15.625H12.25V13.25ZM7.5 15.0312C7.17344 15.0312 6.90625 14.7641 6.90625 14.4375C6.90625 14.1109 7.17344 13.8438 7.5 13.8438C7.82656 13.8438 8.09375 14.1109 8.09375 14.4375C8.09375 14.7641 7.82656 15.0312 7.5 15.0312ZM7.5 3.15625C7.17344 3.15625 6.90625 2.88906 6.90625 2.5625C6.90625 2.23594 7.17344 1.96875 7.5 1.96875C7.82656 1.96875 8.09375 2.23594 8.09375 2.5625C8.09375 2.88906 7.82656 3.15625 7.5 3.15625Z" fill="#262626"/>
</svg>
