<svg width="25" height="19" viewBox="0 0 25 19" fill="none" xmlns="http://www.w3.org/2000/svg">
<path d="M24.2188 6.375H21.875C21.443 6.375 21.0938 6.725 21.0938 7.15625V7.9375H20.3125V7.15625C20.3125 6.725 19.9633 6.375 19.5312 6.375H18.2922L16.1781 4.26094C16.1063 4.18828 16.0195 4.13125 15.9234 4.09141C15.8281 4.05234 15.7266 4.03125 15.625 4.03125H13.2812V2.46875H14.8438C15.2758 2.46875 15.625 2.11875 15.625 1.6875C15.625 1.25625 15.2758 0.90625 14.8438 0.90625H7.8125C7.38047 0.90625 7.03125 1.25625 7.03125 1.6875C7.03125 2.11875 7.38047 2.46875 7.8125 2.46875H9.375V4.03125H7.03125C7.00625 4.03125 6.98516 4.04297 6.96094 4.04531C6.90469 4.05078 6.85234 4.06094 6.79922 4.07813C6.75313 4.09297 6.71094 4.10937 6.66875 4.13203C6.625 4.15547 6.58516 4.18281 6.54531 4.21484C6.50391 4.24922 6.46797 4.28516 6.43437 4.32656C6.41797 4.34609 6.39609 4.35781 6.38125 4.37969L5.05078 6.375H3.125C2.69297 6.375 2.34375 6.725 2.34375 7.15625V9.5H1.5625V7.15625C1.5625 6.725 1.21328 6.375 0.78125 6.375C0.349219 6.375 0 6.725 0 7.15625V14.1875C0 14.6187 0.349219 14.9688 0.78125 14.9688C1.21328 14.9688 1.5625 14.6187 1.5625 14.1875V11.0625H2.34375V14.1875C2.34375 14.6187 2.69297 14.9688 3.125 14.9688H4.98594L6.33281 17.6617C6.36953 17.7352 6.41797 17.7992 6.47266 17.8555C6.48359 17.8672 6.49766 17.875 6.50937 17.8852C6.56484 17.9359 6.62656 17.9766 6.69375 18.0094C6.71641 18.0203 6.73906 18.0305 6.76328 18.0391C6.84844 18.0711 6.9375 18.093 7.02969 18.0938C7.03047 18.0938 7.03047 18.0938 7.03125 18.0938H16.4062C16.5203 18.0938 16.6273 18.0664 16.725 18.0227C16.7508 18.0109 16.7703 17.9898 16.7945 17.9758C16.8656 17.9336 16.9312 17.8867 16.9859 17.825C16.9945 17.8148 17.0078 17.8117 17.0164 17.8008L19.907 14.1875H21.0938V14.9688C21.0938 15.4 21.443 15.75 21.875 15.75H24.2188C24.6508 15.75 25 15.4 25 14.9688V7.15625C25 6.725 24.6508 6.375 24.2188 6.375ZM23.4375 14.1875H22.6562V13.4062C22.6562 12.975 22.307 12.625 21.875 12.625H19.5312C19.5164 12.625 19.5039 12.6328 19.4891 12.6336C19.4359 12.6367 19.3859 12.6508 19.3344 12.6648C19.2859 12.6781 19.2383 12.6875 19.1938 12.7086C19.1531 12.7281 19.1187 12.7578 19.0812 12.7844C19.0359 12.8172 18.9914 12.8484 18.9539 12.8906C18.9438 12.9016 18.9305 12.9062 18.9211 12.918L16.0305 16.5312H7.51406L6.16719 13.8383C6.15 13.8039 6.12031 13.7812 6.09844 13.75C6.06563 13.7031 6.03672 13.6562 5.99453 13.6172C5.95703 13.5828 5.91406 13.5602 5.87109 13.5344C5.82891 13.5078 5.78984 13.4797 5.74219 13.4617C5.68828 13.4414 5.63125 13.4359 5.57344 13.4273C5.53828 13.4227 5.50625 13.4062 5.46875 13.4062H3.90625V7.9375H5.46875H5.46953C5.5625 7.9375 5.65313 7.91563 5.73984 7.88281C5.75703 7.87656 5.77422 7.87109 5.79141 7.86328C5.87031 7.82734 5.94297 7.77969 6.00703 7.71797C6.01953 7.70625 6.02891 7.69219 6.04063 7.67969C6.06719 7.65078 6.09609 7.62344 6.11797 7.58984L7.44922 5.59375H10.1562C10.5883 5.59375 10.9375 5.24375 10.9375 4.8125V2.46875H11.7188V4.8125C11.7188 5.24375 12.068 5.59375 12.5 5.59375H15.3016L17.4156 7.70781C17.4875 7.78047 17.5742 7.8375 17.6703 7.87734C17.7656 7.91641 17.8672 7.9375 17.9688 7.9375H18.75V8.71875C18.75 9.15 19.0992 9.5 19.5312 9.5H21.875C22.307 9.5 22.6562 9.15 22.6562 8.71875V7.9375H23.4375V14.1875Z" fill="#262626"/>
<path d="M15.2813 8.07133C14.9227 7.82915 14.4383 7.92368 14.1961 8.28071L10.9617 13.0612L9.07033 11.6018C8.72736 11.3377 8.2383 11.4018 7.97502 11.7432C7.71174 12.0846 7.77502 12.5752 8.11643 12.8385L10.6664 14.8057C10.8039 14.9127 10.9719 14.969 11.1438 14.969C11.1852 14.969 11.2258 14.9659 11.268 14.9588C11.4805 14.9245 11.6703 14.8041 11.7906 14.6252L15.4906 9.15649C15.7328 8.79868 15.6383 8.31352 15.2813 8.07133Z" fill="#262626"/>
</svg>
