<svg width="16" height="16" viewBox="0 0 16 16" fill="none" xmlns="http://www.w3.org/2000/svg">
<path d="M16 1.86666C16 0.806474 15.1162 -0.0473073 14.0451 0.00203642C13.0968 0.0457239 12.3237 0.809786 12.2698 1.7576C12.2248 2.5481 12.6722 3.23932 13.3333 3.55344V6.13332C13.3333 6.72241 12.8558 7.19997 12.2667 7.19997H9.68682C9.50241 6.81188 9.18813 6.49756 8.80004 6.31319V3.55344C9.46123 3.23928 9.90857 2.5481 9.8636 1.7576C9.80969 0.809786 9.03663 0.0457239 8.08829 0.00203642C7.01723 -0.0472761 6.13338 0.806474 6.13338 1.86666C6.13338 2.61125 6.56945 3.25385 7.20004 3.55344V6.31322C6.81195 6.49763 6.49763 6.81191 6.31326 7.2H2.66667V3.55344C3.32786 3.23928 3.7752 2.5481 3.73023 1.7576C3.67632 0.809786 2.90326 0.0457239 1.95492 0.00203642C0.883857 -0.0472761 1.39532e-05 0.806474 1.39532e-05 1.86666C1.39532e-05 2.61125 0.436076 3.25385 1.06667 3.55344V12.4465C0.405482 12.7607 -0.041861 13.4519 0.0031077 14.2424C0.0570139 15.1902 0.830076 15.9542 1.77842 15.9979C2.84948 16.0472 3.73332 15.1935 3.73332 14.1333C3.73332 13.3887 3.29726 12.7461 2.66667 12.4465V8.8H6.3132C6.4976 9.18809 6.81188 9.50241 7.19998 9.68678V12.4466C6.53879 12.7607 6.09145 13.4519 6.13642 14.2424C6.19032 15.1902 6.96338 15.9543 7.91173 15.998C8.98279 16.0473 9.86663 15.1935 9.86663 14.1333C9.86663 13.3887 9.43057 12.7462 8.79998 12.4466V9.68678C9.18807 9.50237 9.50238 9.18809 9.68676 8.8H12.2666C13.7394 8.8 14.9333 7.6061 14.9333 6.13335V3.55344C15.5639 3.25385 16 2.61125 16 1.86666Z" fill="#262626"/>
</svg>
