<svg width="38" height="38" viewBox="0 0 38 38" fill="none" xmlns="http://www.w3.org/2000/svg">
<g clip-path="url(#clip0_1565_19678)">
<path d="M22.045 22.1127C22.045 22.1771 22.0678 22.2143 22.1096 22.2143C22.1438 22.2109 22.1742 22.1974 22.2008 22.1804L34.044 15.3281C34.2442 15.2034 34.4839 15.1393 34.728 15.1452H37.3307C37.7296 15.1452 37.9994 15.3823 37.9994 15.738V20.1684C37.9994 20.7036 37.8664 21.0152 37.3345 21.2998L34.177 22.9934C34.1456 23.0129 34.1088 23.0246 34.0706 23.0273C34.0326 23.0273 33.9947 23.0002 33.9947 22.9019V17.733C33.9947 17.6721 33.9757 17.6314 33.9301 17.6314C33.8967 17.6348 33.8651 17.6466 33.8389 17.6653L25.1835 22.6784C24.9859 22.7969 24.7541 22.8613 24.5186 22.8579H18.7812C18.3785 22.8579 18.1125 22.6208 18.1125 22.2617V15.8768C18.1125 15.8294 18.0897 15.7854 18.0441 15.7854C18.0108 15.7891 17.9793 15.8008 17.9529 15.8193L12.2422 18.8745C12.1852 18.9084 12.17 18.9321 12.17 18.9558C12.17 18.9761 12.1814 18.9965 12.2194 19.0337L16.3001 22.6682C16.3533 22.7156 16.3913 22.7529 16.3913 22.7935C16.3913 22.8274 16.3305 22.8545 16.2583 22.8545H12.5727C12.284 22.8545 12.0598 22.8172 11.904 22.6784L9.43051 20.4767C9.42113 20.4667 9.40954 20.4585 9.39647 20.4527C9.38339 20.4469 9.36911 20.4435 9.35451 20.4428C9.32769 20.4439 9.30159 20.4509 9.27852 20.4631L5.1446 22.6784C4.89383 22.8139 4.72285 22.8511 4.47588 22.8511H0.672522C0.265969 22.8545 0 22.614 0 22.2584V17.9126C0 17.374 0.132985 17.0657 0.668722 16.7812L3.84515 15.0808C3.87007 15.0663 3.89898 15.0581 3.92874 15.0571C3.97814 15.0571 4.00473 15.1012 4.00473 15.1994V21.0186C4.00473 21.0796 4.01993 21.1067 4.06933 21.1067C4.10352 21.1033 4.13392 21.0898 4.16432 21.0728L14.8943 15.3179C15.0994 15.1926 15.3502 15.1316 15.601 15.1418H21.3763C21.7753 15.1418 22.045 15.3789 22.045 15.7346L22.0412 22.1127H22.045Z" fill="#131E29"/>
</g>
<defs>
<clipPath id="clip0_1565_19678">
<rect width="38" height="38" fill="white"/>
</clipPath>
</defs>
</svg>
