<svg width="235" height="46" viewBox="0 0 235 46" fill="none" xmlns="http://www.w3.org/2000/svg">
<g clip-path="url(#clip0_1565_19558)">
<path d="M8.72656 34.0704C10.0308 35.766 11.2178 37.5521 12.279 39.4157C13.185 41.1685 13.5627 42.3569 14.225 44.4688C14.631 45.6356 14.998 45.9838 15.7871 45.9838C16.647 45.9838 17.0371 45.3913 17.3385 44.4751C17.9645 42.4809 18.4556 40.9587 19.2305 39.5206C20.7509 36.744 22.6401 34.2766 24.4966 31.9052C24.9993 31.2341 28.2485 27.3242 29.7113 24.2391C29.7113 24.2391 31.5092 20.8502 31.5092 16.1172C31.5092 11.69 29.7361 8.61938 29.7361 8.61938L24.6313 10.014L21.5311 18.344L20.7642 19.4926L20.6108 19.7006L20.4069 19.9611L20.0487 20.3772L19.5372 20.899L16.7765 23.1936L9.87465 27.2591L8.72656 34.0704Z" fill="#34A853"/>
<path d="M1.60547 23.6691C3.28992 27.5944 6.53825 31.0448 8.73602 34.0729L20.4093 19.9663C20.4093 19.9663 18.7647 22.1605 15.7815 22.1605C12.4587 22.1605 9.77417 19.4535 9.77417 16.0401C9.77417 13.6994 11.1545 12.0913 11.1545 12.0913L3.23052 14.2575L1.60547 23.6691Z" fill="#FBBC04"/>
<path d="M20.5408 0.716553C24.4177 1.99182 27.7361 4.66897 29.7432 8.61687L20.414 19.9586C20.414 19.9586 21.7944 18.3215 21.7944 15.9953C21.7944 12.5024 18.9113 9.89304 15.7968 9.89304C12.8517 9.89304 11.1602 12.0836 11.1602 12.0836V4.9385L20.5408 0.716553Z" fill="#4285F4"/>
<path d="M3.74219 5.72785C6.05787 2.90147 10.1325 -0.0090332 15.7497 -0.0090332C18.4749 -0.0090332 20.5282 0.720852 20.5282 0.720852L11.1485 12.0897H4.50285L3.74219 5.72785Z" fill="#1A73E8"/>
<path d="M1.60438 23.6695C1.60438 23.6695 0.0546875 20.5736 0.0546875 16.0884C0.0546875 11.8493 1.66999 8.1438 3.74275 5.72803L11.1543 12.0908L1.60438 23.6695Z" fill="#EA4335"/>
<path d="M161.079 37.2945V13.1214H164.123L172.364 27.8413H172.497L180.737 13.1214H183.782V37.2945H180.737V22.9455L180.87 18.8936H180.737L173.326 32.1618H171.539L164.128 18.8936H163.995L164.128 22.9455V37.2936L161.079 37.2945ZM192.683 37.801C190.963 37.801 189.522 37.2945 188.365 36.2815C187.208 35.2686 186.628 33.93 186.628 32.264C186.628 30.4551 187.31 29.0514 188.679 28.0267C190.048 27.0019 191.734 26.4909 193.732 26.4909C195.52 26.4909 196.986 26.8283 198.134 27.5039V27.0309C198.134 25.8153 197.726 24.8421 196.911 24.1113C196.095 23.3806 195.091 23.0143 193.898 23.0143C193.016 23.0143 192.217 23.2277 191.5 23.6474C190.783 24.067 190.293 24.6603 190.028 25.402L187.248 24.1873C187.623 23.1969 188.363 22.288 189.465 21.436C190.567 20.584 192.023 20.1698 193.833 20.1698C195.907 20.1698 197.627 20.7893 198.995 22.0266C200.363 23.2639 201.047 25.0095 201.047 27.2606V37.2629H198.135V34.9656H198.002C196.788 36.8649 195.012 37.801 192.683 37.801ZM193.179 34.9656C194.436 34.9656 195.577 34.4862 196.604 33.5311C197.631 32.576 198.143 31.4509 198.143 30.1395C197.283 29.4186 195.992 29.0586 194.272 29.0586C192.793 29.0586 191.678 29.3842 190.929 30.0382C190.18 30.6921 189.803 31.4563 189.803 32.3336C189.803 33.144 190.146 33.7853 190.829 34.2583C191.513 34.7313 192.296 34.9674 193.178 34.9674L193.179 34.9656ZM212.455 37.801C211.22 37.801 210.111 37.5297 209.13 36.9906C208.15 36.4516 207.415 35.775 206.932 34.9647H206.799L206.932 37.2601V44.5527H203.887V20.7188H206.8V23.0143H206.933C207.418 22.2039 208.151 21.5292 209.132 20.9883C210.112 20.4474 211.222 20.1779 212.457 20.1779C214.552 20.1779 216.362 21.0218 217.884 22.7104C219.406 24.399 220.168 26.4909 220.168 28.9899C220.168 31.4889 219.405 33.5818 217.884 35.2695C216.363 36.9572 214.552 37.8019 212.457 37.8019L212.455 37.801ZM211.958 34.9656C213.371 34.9656 214.582 34.4193 215.598 33.3376C216.614 32.2559 217.121 30.7997 217.121 28.999C217.121 27.1982 216.614 25.743 215.598 24.6603C214.583 23.5777 213.37 23.0323 211.958 23.0323C210.525 23.0323 209.305 23.5723 208.301 24.6531C207.298 25.7339 206.797 27.1855 206.797 29.008C206.797 30.8305 207.299 32.2821 208.301 33.3629C209.304 34.4437 210.524 34.9837 211.958 34.9837V34.9656ZM228.258 37.801C226.449 37.801 224.954 37.3506 223.773 36.4507C222.592 35.5507 221.734 34.4247 221.176 33.0744L223.889 31.9257C224.749 34.006 226.217 35.0307 228.291 35.0307C229.24 35.0307 230.018 34.8172 230.625 34.3976C231.231 33.9779 231.535 33.4072 231.535 32.7099C231.535 31.63 230.796 30.8974 229.317 30.5157L226.041 29.7062C225.004 29.4367 224.023 28.9239 223.096 28.1705C222.17 27.4171 221.706 26.3978 221.706 25.1162C221.706 23.6537 222.34 22.4662 223.608 21.5527C224.877 20.6392 226.383 20.1852 228.125 20.1852C229.559 20.1852 230.838 20.5171 231.964 21.18C233.068 21.8186 233.921 22.8262 234.38 24.0327L231.732 25.1469C231.138 23.6844 229.901 22.9528 228.026 22.9528C227.122 22.9528 226.359 23.1445 225.743 23.5262C225.127 23.9078 224.817 24.427 224.817 25.08C224.817 26.0251 225.526 26.6664 226.968 27.0047L230.177 27.7807C231.699 28.1406 232.824 28.7602 233.552 29.6375C234.28 30.5148 234.644 31.5061 234.644 32.6095C234.644 34.0946 234.049 35.3228 232.857 36.3231C231.665 37.3235 230.133 37.8082 228.247 37.8082L228.258 37.801ZM70.8596 22.8822H58.3716V26.6628H67.2372C66.8001 31.9628 62.4764 34.2239 58.3956 34.2239C57.1025 34.2299 55.8212 33.973 54.6265 33.4683C53.4317 32.9635 52.3476 32.2209 51.4373 31.2839C50.527 30.3469 49.8089 29.2343 49.3248 28.0111C48.8407 26.7878 48.6003 25.4784 48.6178 24.1593C48.6178 18.4369 52.9601 14.0295 58.4053 14.0295C62.6076 14.0295 65.0811 16.7627 65.0811 16.7627L67.676 14.0223C67.676 14.0223 64.3452 10.2417 58.2723 10.2417C50.5389 10.2417 44.5547 16.9011 44.5547 24.0942C44.5547 31.1416 50.1843 38.0163 58.47 38.0163C65.7575 38.0163 71.0946 32.9224 71.0946 25.3902C71.0946 23.802 70.8685 22.8831 70.8685 22.8831L70.8596 22.8822Z" fill="#767676"/>
<path d="M81.1128 20.1932C75.9885 20.1932 72.3164 24.2795 72.3164 29.0459C72.3164 33.8829 75.8786 38.0451 81.1819 38.0451C85.9755 38.0451 89.9021 34.308 89.9021 29.149C89.9021 23.2367 85.3337 20.1914 81.1217 20.1914L81.1128 20.1932ZM81.1633 23.6997C83.6838 23.6997 86.0713 25.7782 86.0713 29.1264C86.0713 32.4041 83.6927 34.544 81.1509 34.544C78.3583 34.544 76.1552 32.2621 76.1552 29.102C76.1552 26.0106 78.3317 23.7006 81.1624 23.7006L81.1633 23.6997Z" fill="#767676"/>
<path d="M100.152 20.1932C95.0276 20.1932 91.3555 24.2795 91.3555 29.0459C91.3555 33.8829 94.9176 38.0451 100.221 38.0451C105.015 38.0451 108.941 34.308 108.941 29.149C108.941 23.2367 104.373 20.1914 100.161 20.1914L100.152 20.1932ZM100.202 23.6997C102.723 23.6997 105.11 25.7782 105.11 29.1264C105.11 32.4041 102.732 34.544 100.19 34.544C97.3973 34.544 95.1942 32.2621 95.1942 29.102C95.1942 26.0106 97.3707 23.7006 100.202 23.7006L100.202 23.6997Z" fill="#767676"/>
<path d="M118.897 20.1933C114.194 20.1933 110.496 24.3962 110.496 29.1129C110.496 34.4853 114.782 38.0488 118.815 38.0488C121.308 38.0488 122.634 37.0385 123.614 35.8781V37.6382C123.614 40.7178 121.781 42.5629 119.004 42.5629C116.331 42.5629 114.992 40.5351 114.525 39.3847L111.163 40.8191C112.356 43.3923 114.757 46.0766 119.034 46.0766C123.71 46.0766 127.275 43.0721 127.275 36.7609V20.7251H123.606V22.2373C122.479 20.9982 120.936 20.1887 118.89 20.1887L118.897 20.1933ZM119.238 23.6935C121.544 23.6935 123.911 25.7013 123.911 29.1319C123.911 32.6194 121.549 34.5405 119.186 34.5405C116.679 34.5405 114.346 32.4639 114.346 29.1644C114.346 25.7276 116.768 23.6926 119.238 23.6926V23.6935ZM143.648 20.1933C139.212 20.1933 135.485 23.7929 135.485 29.1084C135.485 34.7304 139.637 38.066 144.073 38.066C147.776 38.066 150.049 35.9993 151.403 34.1479L148.389 32.0948C147.605 33.3375 146.292 34.5531 144.103 34.5531C141.642 34.5531 140.512 33.1784 139.812 31.847L151.544 26.8726L150.935 25.4255C149.801 22.5747 147.157 20.1942 143.666 20.1942L143.648 20.1933ZM143.8 23.6265C145.4 23.6265 146.549 24.4948 147.039 25.5331L139.204 28.8741C138.867 26.2874 141.267 23.6265 143.801 23.6265H143.8ZM129.881 37.5342H133.734V11.2148H129.881V37.5342Z" fill="#767676"/>
</g>
<defs>
<clipPath id="clip0_1565_19558">
<rect width="234.6" height="46" fill="white"/>
</clipPath>
</defs>
</svg>
