<svg width="93" height="14" viewBox="0 0 93 14" fill="none" xmlns="http://www.w3.org/2000/svg">
<path d="M26.6094 13.2621H29.1631V2.99178H32.408V0.535156H26.6094V13.2621Z" fill="#990032"/>
<path d="M57.4688 2.99178H60.0191V13.2621H62.5728V2.99178H65.1265V0.535156H57.4688V2.99178Z" fill="#990032"/>
<path d="M0 0.535156V13.2656H2.49664V10.0313H5.74497L7.62416 8.1906V2.3759L5.82886 0.535156H0ZM5.07383 7.57816H2.49664V2.99178H5.07383V7.57816Z" fill="#990032"/>
<path d="M10.8773 0.535156L9.08203 2.3759V11.4248L10.8773 13.2656H15.384L17.1827 11.4248V2.3759L15.384 0.535156H10.8773ZM14.6257 10.8055H11.6324V2.99178H14.6257V10.8055Z" fill="#990032"/>
<path d="M21.3511 2.99178H24.9719V0.535156H20.5927L18.8008 2.3759V11.4214L20.5927 13.2656H24.9921V10.8055H21.3511V2.99178Z" fill="#990032"/>
<path d="M34.975 0.535156L33.1797 2.3759V11.4248L34.975 13.2656H39.4817L41.2804 11.4248V2.3759L39.4817 0.535156H34.975ZM38.7267 10.8055H35.7334V2.99178H38.7267V10.8055Z" fill="#990032"/>
<path d="M66.4531 0.535156V13.2656H68.9498V10.0313H72.1981L74.0806 8.1906V2.3759L72.2853 0.535156H66.4531ZM71.5236 7.57816H68.9464V2.99178H71.5236V7.57816Z" fill="#990032"/>
<path d="M45.4521 2.99178H49.0696V0.535156H44.6937L42.8984 2.3759V11.4214L44.6937 13.2656H49.0897V10.8055H45.4521V2.99178Z" fill="#990032"/>
<path d="M52.874 2.99178H56.4915V0.535156H52.1156L50.3203 2.3759V11.4214L52.1156 13.2656H56.5116V10.8055H52.874V2.99178Z" fill="#990032"/>
<path d="M91.1597 6.73864L92.9752 0.535156H90.4147L89.0355 5.34174H88.5758L87.1933 0.535156H84.6329L86.455 6.76273L84.6094 13.2621H87.1329L88.5993 8.24221H89.0087L90.4785 13.2621H92.9986L91.1597 6.73864Z" fill="#990032"/>
<path d="M81.4674 13.2616H84.0379L81.4775 0.53125H77.1151L74.5547 13.2616H77.0413L77.6218 10.227H80.8735L81.4674 13.2616ZM78.0916 7.83574L79.0178 2.98787H79.5044L80.4305 7.83574H78.0916Z" fill="#990032"/>
</svg>
