<svg width="17" height="19" viewBox="0 0 17 19" fill="none" xmlns="http://www.w3.org/2000/svg">
<path d="M14.0209 4.50567L14.6048 3.92176L15.2722 4.58912L16.4401 3.42125L13.9375 0.918701L12.7696 2.08657L13.437 2.75389L12.6862 3.50465C8.68216 1.08551 3.51022 2.33678 1.17453 6.34086C-1.16117 10.3449 0.0900633 15.35 4.01073 17.7692C7.9314 20.1883 13.1033 18.937 15.439 14.933C17.5245 11.5128 16.9406 7.17507 14.0209 4.50567ZM8.34846 16.4345C5.09516 16.4345 2.5092 13.8485 2.5092 10.5952C2.5092 7.34192 5.09516 4.75593 8.34846 4.75593V10.5952H14.1877C14.1878 13.8485 11.6018 16.4345 8.34846 16.4345Z" fill="#262626"/>
</svg>
