<svg width="78" height="78" viewBox="0 0 78 78" fill="none" xmlns="http://www.w3.org/2000/svg">
<path d="M23.0168 33.3864V33.4312C22.8377 36.7888 24.718 39.9226 27.807 41.4448H27.8518C28.9262 41.982 29.8216 42.8326 30.4036 43.9071V43.9518C31.9705 46.9066 35.1939 48.7421 38.6411 48.563H38.6859C39.9394 48.4735 41.1929 48.8316 42.2226 49.5032C45.1326 51.3387 48.8484 51.3387 51.7584 49.5032C52.8328 48.8316 54.0416 48.5183 55.2951 48.563H55.3399C58.7871 48.7421 62.0104 46.9514 63.5774 43.9518C64.1594 42.8774 65.0547 42.0268 66.1292 41.4895H66.174C69.263 39.9674 71.1433 36.8336 70.9642 33.4759V33.4312C70.9195 32.2672 71.2328 31.1032 71.9044 30.1183C73.8294 27.2978 73.8294 23.582 71.9044 20.8063C71.2328 19.8214 70.9195 18.6574 70.9642 17.4934V17.4487C71.1433 14.091 69.263 10.9572 66.174 9.43504H66.1292C65.0547 8.89781 64.1594 8.0472 63.5774 6.97275V6.92798C62.0104 3.97324 58.7871 2.13771 55.3399 2.31679H55.2951C54.0416 2.40633 52.7881 2.04818 51.7584 1.37664C48.8484 -0.458881 45.1326 -0.458881 42.2226 1.37664C41.1482 2.04818 39.9394 2.36156 38.6859 2.31679H38.6411C35.1939 2.13771 31.9705 3.92847 30.4036 6.92798C29.8216 8.00244 28.9262 8.85304 27.8518 9.39027H27.807C24.718 10.9124 22.8377 14.0462 23.0168 17.4039V17.4487C23.0615 18.6127 22.7481 19.7766 22.0766 20.7616C20.1515 23.582 20.1515 27.2978 22.0766 30.0735C22.7481 31.0136 23.0615 32.1776 23.0168 33.3864ZM24.4494 22.3732C25.479 20.8511 25.9715 19.0603 25.882 17.2248V17.1801C25.7924 14.9416 27.046 12.8822 29.0606 11.9421H29.1053C30.7618 11.1363 32.1048 9.83796 32.9554 8.22628V8.18151C33.9851 6.21168 36.1788 5.00292 38.462 5.13723H38.5068C40.3423 5.22677 42.1778 4.77908 43.7447 3.79416C45.7146 2.54063 48.2216 2.54063 50.1915 3.79416C51.7584 4.77908 53.5939 5.27153 55.4294 5.13723H55.4742C57.8022 5.00292 59.9511 6.21168 60.9808 8.18151V8.22628C61.8314 9.83796 63.1744 11.1363 64.8309 11.9421H64.8757C66.935 12.927 68.1438 14.9864 68.0542 17.1801V17.2248C67.9647 19.0603 68.4572 20.8511 69.4868 22.3732C70.7404 24.2088 70.7404 26.5815 69.4868 28.417C68.4572 29.9392 67.9647 31.7299 68.0542 33.5655V33.6102C68.1886 35.8039 66.935 37.8633 64.8757 38.8482C63.2192 39.654 61.8761 40.9523 61.0255 42.564C59.9958 44.5338 57.8022 45.7426 55.519 45.6083H55.4742C53.6387 45.5187 51.8031 45.9664 50.2362 46.9514C48.2664 48.2049 45.7593 48.2049 43.7895 46.9514C42.3569 46.056 40.7005 45.5635 39.044 45.5635C38.8649 45.5635 38.7306 45.5635 38.5516 45.5635H38.5068C36.2236 45.6978 34.0747 44.5338 33.0002 42.5192V42.4745C32.1496 40.8628 30.8065 39.5645 29.1501 38.7586H29.1053C27.046 37.7737 25.8372 35.7144 25.9267 33.5207V33.4759C26.0163 31.6404 25.5238 29.8496 24.4941 28.3275C23.1958 26.5815 23.1958 24.2088 24.4494 22.3732Z" fill="#CA0100"/>
<path d="M47.724 32.939C47.9478 33.0733 48.1717 33.1628 48.4403 33.1628C48.9327 33.1628 49.3357 32.939 49.6043 32.536L60.304 15.4343C60.5726 15.0314 60.5726 14.4942 60.3488 14.0465C60.125 13.5988 59.6773 13.3302 59.1848 13.3302H59.14C58.6476 13.3302 58.2447 13.5988 57.976 13.957L47.2763 31.0587C46.9181 31.6854 47.0972 32.536 47.724 32.939Z" fill="#262626"/>
<path d="M48.9321 23.7162C51.3944 23.7162 53.3642 21.4778 53.3642 18.7021C53.3642 15.9264 51.3496 13.688 48.9321 13.688C46.4698 13.688 44.5 15.9264 44.5 18.7021C44.5 21.4778 46.5146 23.7162 48.9321 23.7162ZM48.9321 16.4637C49.8723 16.4637 50.6333 17.4933 50.6333 18.7469C50.6333 20.0004 49.8723 21.0301 48.9321 21.0301C47.992 21.0301 47.2309 20.0004 47.2309 18.7469C47.2309 17.4933 47.992 16.4637 48.9321 16.4637Z" fill="#262626"/>
<path d="M54.2188 27.7447C54.2188 30.5204 56.2333 32.7588 58.6509 32.7588C61.1132 32.7588 63.083 30.5204 63.083 27.7447C63.083 24.969 61.0684 22.7306 58.6509 22.7306C56.2333 22.7306 54.2188 24.969 54.2188 27.7447ZM58.6956 30.0279C57.7555 30.0279 56.9944 28.9982 56.9944 27.7447C56.9944 26.4912 57.7555 25.4615 58.6956 25.4615C59.6358 25.4615 60.3969 26.4912 60.3969 27.7447C60.3969 28.9982 59.6358 30.0279 58.6956 30.0279Z" fill="#262626"/>
<path d="M77.4949 56.6218C75.5699 53.2193 71.3168 51.921 67.8696 53.667L56.5431 59.0393C54.9762 56.1293 51.9767 54.2938 48.6638 54.2043L38.1878 53.9356C36.5314 53.8909 34.9197 53.488 33.4423 52.7269L32.3679 52.1897C26.9061 49.3692 20.4146 49.3692 14.9976 52.1897L15.0423 49.7721C15.0423 48.9663 14.4156 48.2948 13.6545 48.2948L2.19367 47.8918C1.38784 47.8918 0.716302 48.5186 0.716302 49.2797L0 74.4846C0 75.2904 0.626764 75.9619 1.38783 75.9619L12.8487 76.2753H12.8934C13.6545 76.2753 14.326 75.6485 14.326 74.8875L14.3708 73.6787L17.3703 72.067C18.5343 71.4403 19.9221 71.306 21.1757 71.6641L38.9489 76.6335C38.9937 76.6335 38.9937 76.6335 39.0385 76.6782C40.3368 76.9468 41.635 77.0812 42.9333 77.0812C45.709 77.0812 48.4847 76.4992 50.9917 75.3352C51.0365 75.2904 51.126 75.2904 51.1708 75.2456L76.9577 58.5468C77.6292 58.1439 77.8531 57.2933 77.4949 56.6218ZM11.5056 73.3653L2.90998 73.1415L3.53674 50.8914L12.1324 51.1152L11.5056 73.3653ZM49.7382 72.7386C46.6044 74.1712 43.0676 74.5293 39.71 73.8578L21.9815 68.8884C19.9669 68.3064 17.8628 68.5751 16.0273 69.56L14.5051 70.3658L14.908 55.5473C19.7431 52.324 25.9212 52.0106 31.0696 54.6967L32.1441 55.2339C34.0243 56.1741 36.0389 56.7113 38.1431 56.8009L48.619 57.0695C51.5737 57.159 54.036 59.2631 54.6628 62.1283L39.0832 61.6807C38.2774 61.6807 37.6059 62.3074 37.6059 63.0685C37.6059 63.8296 38.2326 64.5459 38.9937 64.5459L56.1849 65.0383H56.2297C56.9908 65.0383 57.6623 64.4116 57.6623 63.6505C57.6623 63.0237 57.6175 62.397 57.528 61.7702L69.1231 56.2636H69.1679C70.8243 55.413 72.7942 55.7264 74.182 56.9799L49.7382 72.7386Z" fill="#262626"/>
<path d="M36.2229 33.6546C40.3864 33.6546 42.7591 30.1179 42.7591 23.9845C42.7591 21.1193 42.2219 18.8361 41.1922 17.2244C40.1178 15.568 38.5061 14.6726 36.5363 14.6726C34.6112 14.6726 32.9547 15.568 31.7908 17.2244C30.6268 18.8809 30 21.2984 30 24.2084C30.0448 30.0283 32.4623 33.6546 36.2229 33.6546ZM36.402 17.4483C39.0881 17.4483 39.491 21.6118 39.491 24.1188C39.491 26.6707 39.0881 30.9237 36.402 30.9237C34.5217 30.9237 33.3129 28.3719 33.3129 24.2531C33.2681 20.0896 34.5217 17.4483 36.402 17.4483Z" fill="#262626"/>
</svg>
