<svg width="72" height="76" viewBox="0 0 72 76" fill="none" xmlns="http://www.w3.org/2000/svg">
<path d="M71.4645 37.7466C71.4637 37.62 71.4605 37.4943 71.4588 37.368C71.4569 37.195 71.4548 37.0222 71.4511 36.8499C71.4502 36.8073 71.4488 36.7649 71.4477 36.7222C71.2059 26.3536 68.0353 17.0037 63.0741 10.333C58.6638 4.37178 52.8372 0.527992 46.3845 0C46.2579 0 46.2579 0 46.1311 0C46.0406 0.00801563 45.9508 0.0197422 45.8605 0.0293906C45.5299 0.011875 45.1982 0 44.8645 0H27.1313C20.5431 0 14.5163 3.43959 9.87064 9.11629C9.73853 9.22925 9.62928 9.36507 9.5469 9.51855C4.01894 16.4953 0.53125 26.6904 0.53125 38C0.53125 58.9 12.4379 76 27.1313 76H44.8646C45.2259 76 45.5849 75.9866 45.9426 75.9662C46.0477 75.9776 46.1525 75.9906 46.2579 76C58.4179 74.9866 68.5513 62.5734 70.9579 45.4734C70.9718 45.3411 70.9855 45.2071 70.9994 45.0739C71.3036 42.7801 71.4645 40.416 71.4645 38V37.7466ZM29.5705 57.9429C29.5437 57.7958 29.4874 57.6573 29.4058 57.5342C27.1612 51.9277 25.8645 45.2145 25.8645 38.0001C25.8645 19.2998 34.6941 3.95957 45.9454 2.57094C58.7428 3.40783 68.9313 19.0248 68.9313 38C68.9313 56.9764 58.7416 72.5941 45.9432 73.4294C39.0646 72.5899 33.1615 66.6477 29.5705 57.9429ZM4.64074 50.6145C4.91758 50.528 5.19441 50.3445 5.47125 50.16L7.11787 47.6266L9.77787 50.2866C10.2845 50.7932 11.0445 50.7932 11.5512 50.2866L14.4646 47.3732L17.5046 50.4132C18.0112 50.9199 18.7712 50.9199 19.278 50.4132L22.318 47.3732L24.3996 49.2357C24.8412 51.4955 25.4123 53.6659 26.1012 55.7248L23.8382 54.5932C23.2048 54.2132 22.5715 54.4666 22.1915 54.9732L20.5449 57.5066L17.8849 54.8466C17.3783 54.34 16.6183 54.34 16.1115 54.8466L13.1979 57.76L10.2845 54.8466C9.77787 54.34 9.01787 54.34 8.5111 54.8466L6.68235 56.6754C5.87723 54.7671 5.19159 52.7393 4.64074 50.6145ZM3.06998 38.6234L6.23125 40.4068C6.73787 40.6601 7.37125 40.5334 7.75125 40.1534L10.6646 37.24L13.7046 40.1534C14.2113 40.66 14.9712 40.66 15.478 40.1534L18.518 37.1134L23.3664 40.045C23.4274 41.8666 23.5685 43.655 23.7859 45.4002L22.8246 44.5868C22.318 44.2068 21.558 44.3334 21.178 44.7134L18.2646 47.6268L15.3512 44.7134C14.8446 44.2068 14.0846 44.2068 13.5779 44.7134L10.6645 47.6268L7.7511 44.7134C7.49772 44.46 7.11772 44.3334 6.73772 44.3334C6.35772 44.3334 5.97772 44.5868 5.72434 44.84L3.94502 47.5089C3.40827 44.6715 3.10605 41.6934 3.06998 38.6234ZM7.20767 18.131L10.0311 20.0134C10.4111 20.2668 11.0445 20.2668 11.4245 20.0134L14.4645 17.9868L17.6311 20.1401C18.0111 20.3935 18.6445 20.3935 19.0245 20.1401L22.1911 17.9868L26.2273 19.9472C25.5612 21.8877 24.9992 23.9277 24.5529 26.0487L22.951 24.4468C22.4443 23.9401 21.6843 23.9401 21.1776 24.4468L18.2642 27.3601L15.3508 24.4468C14.8442 23.9401 14.0842 23.9401 13.5774 24.4468L10.6645 27.36L7.7511 24.4466C7.49772 24.1932 7.24448 24.0666 6.86448 24.0666C6.48448 24.0666 6.2311 24.1932 5.97787 24.4466L4.48815 25.9878C5.17378 23.1908 6.09142 20.5546 7.20767 18.131ZM11.2863 11.3293L19.2779 8.99338L22.5712 11.1468C22.9513 11.4001 23.5846 11.4001 23.9646 11.1468L27.1313 8.99338L30.6642 10.7095C29.3056 12.7901 28.1029 15.119 27.0843 17.6467L22.4446 15.3268C22.0646 15.2001 21.558 15.2001 21.178 15.4534L18.138 17.48L15.098 15.4534C14.718 15.2 14.0846 15.2 13.7046 15.4534L10.6646 17.48L8.35524 15.8442C9.24127 14.2163 10.2221 12.7048 11.2863 11.3293ZM18.8979 34.4534C18.3913 34.2 17.7579 34.3268 17.3779 34.7068L14.4645 37.6201L11.5511 34.7068C11.0445 34.2001 10.2845 34.2001 9.77772 34.7068L6.6111 37.8734L3.10976 35.8575C3.18695 33.9632 3.36537 32.1082 3.63775 30.3037C3.79495 30.2403 3.95199 30.1459 4.07787 30.0201L6.86448 27.1068L9.77787 30.02C10.2845 30.5266 11.0445 30.5266 11.5512 30.02L14.4646 27.1066L17.378 30.02C17.8846 30.5266 18.6446 30.5266 19.1514 30.02L22.0648 27.1066L23.7114 28.7532C23.8058 28.8476 23.9091 28.9244 24.0178 28.9836C23.6121 31.6032 23.3789 34.3251 23.3382 37.1174L18.8979 34.4534ZM38.7217 2.53338C36.2942 4.02562 34.0619 6.11755 32.0938 8.68805L27.6379 6.46C27.2579 6.33338 26.7512 6.33338 26.3713 6.58662L23.3313 8.61323L20.2912 6.58662C19.9112 6.33323 19.5312 6.33323 19.1513 6.33323L14.7618 7.58738C18.3758 4.38188 22.6066 2.53323 27.1313 2.53323H38.7217V2.53338ZM7.80216 59.1023L9.39787 57.5066L12.3112 60.42C12.8179 60.9266 13.5779 60.9266 14.0846 60.42L16.9979 57.5066L19.9112 60.42C20.1646 60.6734 20.4179 60.8 20.7979 60.8C21.3045 60.8 21.6845 60.5466 21.8113 60.1666L23.7113 57.2532L27.3696 59.0824C28.3223 61.3319 29.4239 63.4131 30.6544 65.2911L28.2711 66.88L25.2311 64.8534C24.8511 64.6 24.2177 64.6 23.8377 64.8534L20.7979 66.88L17.7579 64.8534C17.3779 64.6 16.7445 64.6 16.3645 64.8534L13.2342 66.9403C11.1552 64.7648 9.32053 62.1157 7.80216 59.1023ZM27.1313 73.4666C22.732 73.4666 18.6105 71.7192 15.0636 68.6762L16.9979 67.3866L20.1645 69.4132C20.5445 69.6666 21.1779 69.6666 21.5579 69.4132L24.5979 67.3866L27.5112 69.54C27.8912 69.7934 28.5246 69.7934 28.9046 69.54L32.1428 67.3813C34.1089 69.9222 36.3387 71.9889 38.7656 73.4668H27.1313V73.4666Z" fill="#262626"/>
<path d="M47.3955 10.1332C40.8373 10.1332 35.3394 17.471 33.1786 27.9948C33.1658 28.0566 33.153 28.1185 33.1406 28.1804C33.0827 28.4688 33.0269 28.7591 32.9739 29.052C32.9558 29.1523 32.9387 29.2533 32.9212 29.3539C32.8854 29.5598 32.851 29.7667 32.8177 29.9747C32.7954 30.1135 32.7733 30.2522 32.7524 30.3918C32.7174 30.6241 32.6841 30.8579 32.6524 31.0928C32.6332 31.2343 32.6146 31.3761 32.5967 31.518C32.57 31.7292 32.5447 31.9416 32.5205 32.1549C32.5011 32.327 32.4827 32.4994 32.465 32.6724C32.4451 32.8664 32.4261 33.0611 32.4085 33.2568C32.3969 33.3843 32.3852 33.5118 32.3745 33.6397C32.351 33.9222 32.3298 34.2062 32.3109 34.4916C32.304 34.5979 32.2979 34.7046 32.2915 34.8112C32.2764 35.0628 32.263 35.3156 32.2514 35.5694C32.2482 35.6432 32.244 35.7165 32.241 35.7905C32.2278 36.1081 32.2183 36.4278 32.2109 36.7488C32.209 36.831 32.2075 36.9131 32.2059 36.9955C32.1996 37.3289 32.1953 37.6634 32.1953 37.9999C32.1953 38.3366 32.1996 38.671 32.2059 39.0044C32.2073 39.0867 32.209 39.1689 32.2109 39.2511C32.2183 39.572 32.228 39.8916 32.241 40.2094C32.244 40.2832 32.2482 40.3567 32.2514 40.4305C32.263 40.6843 32.2764 40.9369 32.2915 41.1885C32.2979 41.2951 32.304 41.4018 32.3109 41.5083C32.3299 41.7937 32.351 42.0777 32.3745 42.3601C32.385 42.4881 32.3969 42.6156 32.4085 42.7433C32.4263 42.9388 32.4451 43.1334 32.465 43.3274C32.4827 43.5003 32.5011 43.6729 32.5205 43.8451C32.5447 44.0583 32.57 44.2707 32.5967 44.4819C32.6146 44.624 32.6332 44.7656 32.6524 44.907C32.6841 45.1419 32.7174 45.3755 32.7524 45.6077C32.7735 45.7473 32.7956 45.8863 32.8179 46.0252C32.8511 46.2332 32.8855 46.44 32.9212 46.6457C32.9387 46.7465 32.9558 46.8474 32.9739 46.9478C33.0267 47.2406 33.0825 47.531 33.1404 47.8192C33.1529 47.8813 33.1656 47.9432 33.1784 48.0051C35.3391 58.5289 40.8372 65.8666 47.3953 65.8666C55.8819 65.8666 62.5953 53.5799 62.5953 37.9999C62.5953 22.4199 55.8821 10.1332 47.3955 10.1332ZM34.8975 42.006C34.8909 41.9278 34.8837 41.8498 34.8774 41.7714C34.8682 41.6552 34.8604 41.5384 34.8519 41.4217C34.8402 41.2574 34.829 41.0929 34.8191 40.9279C34.8135 40.8347 34.8075 40.7414 34.8025 40.6481C34.7884 40.3907 34.7756 40.1327 34.7655 39.8735C34.7637 39.8265 34.7625 39.779 34.7608 39.7319C34.7526 39.503 34.7461 39.2734 34.741 39.0432C34.7394 38.9692 34.7379 38.8955 34.7366 38.8214C34.732 38.5483 34.7287 38.2747 34.7287 37.9999C34.7287 37.7607 34.7315 37.522 34.7345 37.2834C34.8048 32.5587 35.5678 28.0993 36.8215 24.307C38.6816 27.4803 39.7955 32.492 39.7955 37.9998C39.7955 43.5076 38.6816 48.5193 36.8217 51.6927C35.8634 48.7939 35.192 45.5052 34.8975 42.006ZM47.3955 63.3332C43.6698 63.3332 40.2451 59.8752 37.8984 54.516C40.5813 51.2192 42.3287 44.9381 42.3287 37.9998C42.3287 31.0615 40.5811 24.7804 37.8984 21.4836C40.2449 16.1244 43.6697 12.6664 47.3955 12.6664C54.2355 12.6664 60.0621 24.3198 60.0621 37.9998C60.0621 51.6798 54.2355 63.3332 47.3955 63.3332Z" fill="#262626"/>
</svg>
