<svg width="57" height="75" viewBox="0 0 57 75" fill="none" xmlns="http://www.w3.org/2000/svg">
<path d="M52.0435 72.9383V69.3913H55.7609C56.4424 69.3913 57 68.8337 57 68.1522V1.40951C57 0.727989 56.4424 0.17038 55.7609 0.17038L6.19565 0C5.51413 0 4.95652 0.557609 4.95652 1.23913V4.95652H1.23913C0.557609 4.95652 0 5.51413 0 6.19565V72.9383C0 73.6198 0.557609 74.1774 1.23913 74.1774H50.8043C51.4859 74.1774 52.0435 73.6198 52.0435 72.9383ZM7.43478 2.47826L54.5217 2.64864V66.913H52.0435V18.587C52.0435 18.5715 52.0435 18.556 52.0435 18.5405C52.0435 18.525 52.0435 18.5095 52.0435 18.494C52.0435 18.4476 52.028 18.3856 52.028 18.3391C52.0125 18.2927 51.997 18.2307 51.9815 18.1842C51.9815 18.1687 51.966 18.1533 51.966 18.1533C51.9505 18.1068 51.9351 18.0603 51.9041 18.0139C51.9041 18.0139 51.9041 18.0139 51.9041 17.9984C51.8731 17.9519 51.8576 17.9054 51.8111 17.859C51.7957 17.8435 51.7956 17.8435 51.7802 17.828C51.7492 17.7815 51.7182 17.7351 51.6717 17.7041L39.2804 5.31277C39.234 5.28179 39.203 5.23533 39.1565 5.20435C39.141 5.18886 39.141 5.18886 39.1255 5.17337C39.0791 5.14239 39.0326 5.11141 38.9861 5.08043C38.9861 5.08043 38.9861 5.08043 38.9706 5.08043C38.9242 5.06494 38.8777 5.03397 38.8312 5.01848C38.8158 5.01848 38.8003 5.00299 38.7848 5.00299C38.7383 4.9875 38.6764 4.97201 38.6299 4.95652C38.5834 4.94103 38.5215 4.94103 38.475 4.94103C38.4595 4.94103 38.444 4.94103 38.4285 4.94103C38.413 4.94103 38.3976 4.94103 38.3821 4.94103H7.43478V2.47826ZM47.8149 17.3478H39.6522V9.18505L47.8149 17.3478ZM49.5652 71.6992H2.47826V7.43478H37.1739V18.587C37.1739 19.2685 37.7315 19.8261 38.413 19.8261H49.5652V71.6992Z" fill="#262626"/>
<path d="M29.7371 42.13C29.7371 41.4485 29.1795 40.8909 28.498 40.8909H9.91101C9.22948 40.8909 8.67188 41.4485 8.67188 42.13C8.67188 42.8115 9.22948 43.3691 9.91101 43.3691H28.498C29.1795 43.3691 29.7371 42.8115 29.7371 42.13Z" fill="#262626"/>
<path d="M16.1128 47.0872H12.3954C11.7139 47.0872 11.1562 47.6448 11.1562 48.3263C11.1562 49.0078 11.7139 49.5654 12.3954 49.5654H16.1128C16.7943 49.5654 17.3519 49.0078 17.3519 48.3263C17.3519 47.6448 16.7943 47.0872 16.1128 47.0872Z" fill="#262626"/>
<path d="M21.0673 47.0872C20.3857 47.0872 19.8281 47.6448 19.8281 48.3263C19.8281 49.0078 20.3857 49.5654 21.0673 49.5654H22.3064C22.9879 49.5654 23.5455 49.0078 23.5455 48.3263C23.5455 47.6448 22.9879 47.0872 22.3064 47.0872H21.0673Z" fill="#262626"/>
<path d="M26.0156 48.3263C26.0156 49.0078 26.5732 49.5654 27.2548 49.5654H38.4069C39.0885 49.5654 39.6461 49.0078 39.6461 48.3263C39.6461 47.6448 39.0885 47.0872 38.4069 47.0872H27.2548C26.5732 47.0872 26.0156 47.6448 26.0156 48.3263Z" fill="#262626"/>
<path d="M35.1932 53.5299L32.8079 55.3267C29.8185 51.5938 24.3818 50.9897 20.6489 53.9636C16.916 56.9375 16.312 62.3897 19.2859 66.1226C22.2753 69.8555 27.712 70.4595 31.4448 67.4856C34.4342 65.1003 35.503 61.0267 34.0625 57.4796L36.6802 55.5125C37.2223 55.0943 37.3307 54.3199 36.928 53.7777C36.5098 53.2356 35.7353 53.1272 35.1932 53.5299ZM26.0236 66.9125C22.6006 66.9125 19.828 64.14 19.828 60.7169C19.828 57.2938 22.6006 54.5212 26.0236 54.5212C27.8823 54.5212 29.6481 55.3576 30.8253 56.8136L26.1321 60.3296L24.4128 58.6103C23.9326 58.1302 23.1427 58.1302 22.6625 58.6103C22.1823 59.0905 22.1823 59.8805 22.6625 60.3606L25.1408 62.8389C25.5745 63.2726 26.2715 63.319 26.7671 62.9473L31.987 59.0286C32.9163 62.3123 31.0111 65.7353 27.712 66.6802C27.1698 66.8351 26.5967 66.9125 26.0236 66.9125Z" fill="#CA0100"/>
<path d="M32.2188 42.13C32.2188 42.8115 32.7764 43.3691 33.4579 43.3691H42.1318C42.8133 43.3691 43.3709 42.8115 43.3709 42.13C43.3709 41.4485 42.8133 40.8909 42.1318 40.8909H33.4579C32.7764 40.8909 32.2188 41.4485 32.2188 42.13Z" fill="#262626"/>
<path d="M39.6454 59.478C38.9639 59.478 38.4062 60.0356 38.4062 60.7172C38.4062 61.3987 38.9639 61.9563 39.6454 61.9563H43.3628C44.0443 61.9563 44.6019 61.3987 44.6019 60.7172C44.6019 60.0356 44.0443 59.478 43.3628 59.478H39.6454Z" fill="#262626"/>
<path d="M38.4062 65.6744C38.4062 66.356 38.9639 66.9136 39.6454 66.9136H45.841C46.5226 66.9136 47.0802 66.356 47.0802 65.6744C47.0802 64.9929 46.5226 64.4353 45.841 64.4353H39.6454C38.9639 64.4353 38.4062 64.9929 38.4062 65.6744Z" fill="#262626"/>
<path d="M38.7033 27.2923L34.3044 26.1926L32.074 21.7472C31.8571 21.329 31.4389 21.0657 30.9588 21.0657H18.5675C18.1028 21.0657 17.6691 21.329 17.4522 21.7472L15.2063 26.239L11.9691 27.3233C11.4579 27.4937 11.1172 27.9583 11.1172 28.5005V33.457C11.1172 34.1385 11.6748 34.6961 12.3563 34.6961H15.0514C15.7329 36.6322 17.855 37.639 19.7911 36.9575C20.8444 36.5858 21.6808 35.7494 22.0525 34.6961H28.6819C29.3634 36.6322 31.4854 37.639 33.4215 36.9575C34.4748 36.5858 35.3112 35.7494 35.6829 34.6961H38.409C39.0906 34.6961 39.6482 34.1385 39.6482 33.457V28.5005C39.6482 27.9274 39.2609 27.4317 38.7033 27.2923ZM31.4544 26.0222H26.0177V23.5439H30.2153L31.4544 26.0222ZM19.3419 23.5439H23.5395V26.0222H18.1028L19.3419 23.5439ZM18.5829 34.6961C17.9014 34.6961 17.3438 34.1385 17.3438 33.457C17.3438 32.7755 17.9014 32.2178 18.5829 32.2178C19.2645 32.2178 19.8221 32.7755 19.8221 33.457C19.8221 34.1385 19.2645 34.6961 18.5829 34.6961ZM32.2134 34.6961C31.5319 34.6961 30.9743 34.1385 30.9743 33.457C30.9743 32.7755 31.5319 32.2178 32.2134 32.2178C32.8949 32.2178 33.4525 32.7755 33.4525 33.457C33.4525 34.1385 32.8949 34.6961 32.2134 34.6961ZM37.1699 32.2178H35.7139C35.0324 30.2817 32.9104 29.2749 30.9743 29.9564C29.921 30.3282 29.0846 31.1646 28.7128 32.2178H22.0835C21.402 30.2817 19.28 29.2749 17.3438 29.9564C16.2906 30.3282 15.4541 31.1646 15.0824 32.2178H13.6264V29.3988L16.306 28.5005H33.2976L37.1699 29.4608V32.2178Z" fill="#CA0100"/>
</svg>
