<svg width="11" height="12" viewBox="0 0 11 12" fill="none" xmlns="http://www.w3.org/2000/svg">
<path d="M5.5 0.000976562C2.46718 0.000976562 0 2.46853 0 5.50182C0 8.5351 2.46718 11.0027 5.5 11.0027C8.53282 11.0027 11 8.5351 11 5.50182C11 2.46853 8.53282 0.000976562 5.5 0.000976562ZM8.11572 8.34709C8.02634 8.43648 7.90902 8.48147 7.79169 8.48147C7.67437 8.48147 7.55696 8.43648 7.46767 8.34709L5.17597 6.05512C5.08978 5.96943 5.04169 5.85292 5.04169 5.73105V2.7514C5.04169 2.49791 5.24697 2.29302 5.5 2.29302C5.75303 2.29302 5.95831 2.49791 5.95831 2.7514V5.54127L8.11572 7.69893C8.2949 7.87822 8.2949 8.16788 8.11572 8.34709V8.34709Z" fill="white"/>
</svg>
