<svg width="43" height="30" viewBox="0 0 43 30" fill="none" xmlns="http://www.w3.org/2000/svg">
<path d="M5.375 7.52796C5.375 11.8189 8.61075 15.0559 12.9 15.0559C17.1893 15.0559 20.425 11.8189 20.425 7.52796C20.425 3.23702 17.1893 0 12.9 0C8.61075 0 5.375 3.23702 5.375 7.52796ZM36.55 6.34069H32.25V12.7932H25.8V17.0949H32.25V23.5475H36.55V17.0949H43V12.7932H36.55V6.34069ZM4.3 30H25.8V27.8492C25.8 21.9193 20.9776 17.0949 15.05 17.0949H10.75C4.82245 17.0949 0 21.9193 0 27.8492V30H4.3Z" fill="white"/>
</svg>
