<svg width="168" height="50" viewBox="0 0 168 50" fill="none" xmlns="http://www.w3.org/2000/svg">
<path d="M16.3551 0.992188C19.7206 0.992188 20.778 3.38427 21.6566 5.77635C22.0289 6.7952 30.7703 30.5241 31.0384 31.2328C31.1128 31.4248 31.0682 31.7496 30.7554 31.8678C30.4427 31.9859 25.9007 33.743 25.6476 33.8316C25.3944 33.9202 25.1115 33.7873 25.0221 33.5363C24.9328 33.2853 23.0415 28.1172 22.833 27.5413C22.2076 27.5413 10.5026 27.5413 9.87718 27.5413C9.66869 28.1172 7.76254 33.3001 7.67319 33.5363C7.58384 33.7726 7.31579 33.935 7.04774 33.8316C6.77969 33.7283 2.22281 31.9711 1.95475 31.8678C1.6867 31.7644 1.56757 31.4691 1.67181 31.2328C1.99943 30.3469 10.6069 6.98716 11.0387 5.77635C11.8876 3.4138 12.9896 0.992188 16.3551 0.992188ZM0.971897 43.4738C0.703845 43.4738 0.480469 43.6953 0.480469 43.9611V49.4983C0.480469 49.7788 0.703845 50.0003 0.971897 50.0003H31.7234C31.9915 50.0003 32.2148 49.7788 32.2148 49.4983V43.9611C32.2148 43.6805 31.9915 43.459 31.7234 43.459H0.971897V43.4738ZM16.3253 8.7443L11.9471 21.7826H20.778L16.3849 8.7443H16.3253ZM130.754 27.881C130.754 29.3575 129.935 30.3321 128.416 30.3321C127.82 30.3321 127.329 30.3321 126.539 30.1254V25.6513C126.882 25.5922 127.597 25.4889 128.416 25.5184C129.95 25.5775 130.754 26.2862 130.754 27.881ZM133.866 27.6595C133.866 24.9278 132.243 23.0377 128.848 23.0377C128.014 23.0377 127.433 23.1116 126.524 23.333V19.3905C127.09 19.3167 128.043 19.2429 129.101 19.2429C130.098 19.2429 131.364 19.3019 132.481 19.4348L132.556 17.1461C131.29 16.8656 129.458 16.6884 128.043 16.6884C126.644 16.6884 124.469 17.0428 123.427 17.3085V31.8678C125.035 32.4584 126.614 32.7242 128.237 32.7242C131.945 32.7389 133.866 30.7898 133.866 27.6595ZM98.5428 26.8621C98.5428 28.8998 97.7237 30.1992 96.3835 30.1992C95.8176 30.1992 95.5197 30.1697 94.8794 29.963V23.8794C95.5793 23.5545 95.9516 23.5545 96.5175 23.5545C97.8726 23.5545 98.5428 24.6472 98.5428 26.8621ZM88.3121 26.9359C88.3121 24.721 88.9823 23.5545 90.3225 23.5545C90.8884 23.5545 91.2607 23.5545 91.9606 23.8794V29.9777C91.3203 30.1844 91.0224 30.214 90.4565 30.214C88.9376 30.214 88.3121 28.9736 88.3121 26.9359ZM94.8794 36.076V32.104C95.2517 32.3255 95.9963 32.6504 97.2323 32.6504C99.7192 32.6504 101.536 30.6127 101.536 26.8769C101.536 22.8605 99.7192 21.1329 96.7409 21.1329C95.9814 21.1329 95.49 21.2068 94.8794 21.5021V16.7622H91.9606V21.5021C91.3501 21.2068 90.8437 21.1329 90.0991 21.1329C87.1208 21.1329 85.304 22.9196 85.304 26.9507C85.304 30.6865 86.9421 32.6651 89.6077 32.6651C90.8586 32.6651 91.6032 32.3403 91.9755 32.1188V36.0908H94.8794V36.076ZM72.7353 32.4584V21.8122C71.127 21.3396 69.891 21.1329 68.2827 21.1329C66.6744 21.1329 65.4682 21.3396 63.8598 21.8122V27.2608C63.8598 28.7374 63.8301 29.1804 63.6662 29.6676C63.5024 30.0811 63.294 30.5979 62.6983 30.9818L63.5024 32.6799C65.8553 32.0154 66.734 31.0113 66.734 27.7924V23.7908C67.5083 23.6727 67.6721 23.6579 68.2827 23.6579C68.9081 23.6579 69.0422 23.6874 69.8166 23.7908V32.4732H72.7353V32.4584ZM108.788 30.1254C108.148 30.3469 107.716 30.3912 107.21 30.3912C106.167 30.3912 105.572 29.9777 105.572 28.9146C105.572 27.8071 106.316 27.438 107.776 27.438C108.118 27.438 108.476 27.497 108.639 27.5413V28.3387C108.639 29.1951 108.684 29.7562 108.788 30.1254ZM112.511 31.3952C111.737 30.2287 111.543 29.5495 111.543 28.0729V25.105C111.543 23.4955 111.35 22.9048 110.918 22.3142C110.322 21.4873 109.339 21.1329 107.508 21.1329C106.227 21.1329 104.946 21.2658 103.74 21.5759L104.172 23.7022C104.991 23.5841 105.855 23.4955 106.465 23.4955C108.401 23.4955 108.625 23.776 108.625 25.2083V25.7547C108.193 25.6365 107.701 25.5627 107.15 25.5627C104.217 25.5627 102.683 26.9802 102.683 29.3132C102.683 31.5134 104.336 32.7094 106.346 32.7094C107.091 32.7094 107.88 32.5765 108.49 32.3255C108.863 32.1631 109.027 32.0745 109.503 31.7496C109.801 32.1778 110.382 32.6061 110.62 32.6799L112.511 31.3952ZM141.074 30.1254C140.433 30.3469 140.001 30.3912 139.495 30.3912C138.453 30.3912 137.857 29.9777 137.857 28.9146C137.857 27.8071 138.602 27.438 140.061 27.438C140.418 27.438 140.761 27.497 140.925 27.5413V28.3387C140.925 29.1951 140.969 29.7562 141.074 30.1254ZM144.797 31.3952C144.022 30.2287 143.814 29.5495 143.814 28.0729V25.105C143.814 23.4955 143.635 22.9048 143.203 22.3142C142.608 21.4873 141.625 21.1329 139.793 21.1329C138.497 21.1329 137.246 21.2658 136.025 21.5759L136.457 23.7022C137.276 23.5841 138.14 23.4955 138.751 23.4955C140.686 23.4955 140.91 23.776 140.91 25.2083V25.7547C140.478 25.6365 140.001 25.5627 139.436 25.5627C136.517 25.5627 134.968 26.9802 134.968 29.3132C134.968 31.5134 136.621 32.7094 138.631 32.7094C139.376 32.7094 140.165 32.5765 140.776 32.3255C141.148 32.1631 141.312 32.0745 141.788 31.7496C142.086 32.1778 142.667 32.6061 142.905 32.6799L144.797 31.3952ZM81.0449 28.634C81.0449 29.7267 80.6578 30.465 79.2579 30.465C78.7814 30.465 78.5878 30.465 77.9772 30.2878V27.0984C78.7367 26.9507 78.8112 26.9212 79.2579 26.9212C80.5982 26.9359 81.0449 27.5856 81.0449 28.634ZM75.0436 21.3101L75.0287 31.8678C76.4136 32.4436 77.9475 32.7094 79.3026 32.7094C82.415 32.7094 84.0829 31.1147 84.0829 28.4864C84.0829 26.109 82.6086 24.6324 79.8536 24.6324C79.1537 24.6324 78.7367 24.721 77.9772 24.913V21.2953H75.0436V21.3101ZM155.504 32.4584V21.4135H152.57V25.5922H149.249V21.4135H146.33V32.4584H149.249V27.9548H152.57V32.4584H155.504ZM167.521 32.4584C167.521 32.4584 165.928 29.077 165.526 28.3092C165.094 27.438 164.677 26.8473 163.784 26.6258V26.5816C164.394 26.4634 164.871 26.109 165.392 25.0016C165.898 23.9237 166.047 23.6874 166.33 23.4364C166.613 23.1854 167.015 23.274 167.015 23.274L167.164 21.2658C166.747 21.2068 166.285 21.2068 165.794 21.2363C165.005 21.2806 164.588 21.5021 164.201 21.9007C163.903 22.1961 163.694 22.639 163.426 23.1706C163.143 23.7317 162.935 24.1747 162.652 24.7506C162.369 25.3264 162.235 25.5922 161.475 25.5922H160.984V21.4135H158.05V32.4584H160.984V27.94H161.386C162.22 27.94 162.369 28.1467 162.816 29.0179C163.337 30.0663 164.32 32.4584 164.32 32.4584H167.521ZM58.4095 32.4584H61.775L56.682 17.0132C56.1459 16.836 55.4758 16.7179 54.7759 16.7179C54.0015 16.7179 53.7334 16.8213 53.1229 17.0132L47.7172 32.4584H50.9487C50.9487 32.4584 51.3805 31.0999 51.9166 29.4314H57.5011C58.0074 31.0999 58.4095 32.4584 58.4095 32.4584ZM52.7357 26.8326C52.7357 26.8326 53.6739 23.7317 53.8079 23.2592C54.1802 22.0041 54.7461 20.0255 54.7461 20.0255H54.8354C54.8354 20.0255 55.3566 22.0779 55.6992 23.2444C55.8332 23.7022 56.7267 26.8473 56.7267 26.8473H52.7357V26.8326ZM117.485 25.0754C116.458 25.0754 115.624 25.9023 115.624 26.9212C115.624 27.9548 116.458 28.7817 117.485 28.7817C118.513 28.7817 119.347 27.9548 119.347 26.9212C119.347 25.9171 118.513 25.0754 117.485 25.0754Z" fill="#E52713"/>
</svg>
