<svg width="19" height="18" viewBox="0 0 19 18" fill="none" xmlns="http://www.w3.org/2000/svg">
<path fill-rule="evenodd" clip-rule="evenodd" d="M18.7365 3.36231L15.8753 0.432813C15.5467 0.0953125 14.8493 0.0953125 14.5218 0.432813V2.47356C12.8912 2.54331 11.056 3.50069 10.0602 4.88556C9.06211 3.50181 7.09729 2.54331 5.46776 2.47356V0.432813C5.13805 0.0953125 4.44176 0.0953125 4.11317 0.432813L1.38388 3.36231C1.22543 3.52543 1.13672 3.7445 1.13672 3.97263C1.13672 4.20075 1.22543 4.41982 1.38388 4.58294L4.11317 7.51131C4.44176 7.84881 5.13805 7.84881 5.46776 7.51131V5.52906C7.03358 5.62806 8.99505 6.94094 8.99505 8.55419V16.8038H11.0906V8.55419C11.0906 6.93981 12.9549 5.62694 14.5218 5.52906V7.51131C14.8493 7.84881 15.5467 7.84881 15.8753 7.51131L18.7365 4.58294C18.8949 4.41982 18.9836 4.20075 18.9836 3.97263C18.9836 3.7445 18.8949 3.52543 18.7365 3.36231Z" fill="white"/>
</svg>
