<svg width="18" height="18" viewBox="0 0 18 18" fill="none" xmlns="http://www.w3.org/2000/svg">
<path d="M17.5536 7.32571L15.9473 7.13275C15.7831 6.52006 15.5426 5.9412 15.233 5.4041L16.2317 4.13479C16.3843 3.93968 16.367 3.63801 16.1906 3.46234L14.5354 1.80641C14.3611 1.63145 14.0587 1.61274 13.8629 1.76537L12.5914 2.76541C12.0564 2.45582 11.4775 2.21535 10.8662 2.05264L10.674 0.446382C10.6445 0.200872 10.4177 0 10.17 0H7.82856C7.58088 0 7.35408 0.200872 7.32528 0.446382L7.13232 2.05264C6.52032 2.21607 5.94072 2.45726 5.40576 2.76613L4.13496 1.76753C3.94056 1.6149 3.63816 1.63289 3.4632 1.80785L1.8072 3.4645C1.63296 3.63873 1.61496 3.94112 1.76832 4.13695L2.76624 5.40698C2.45664 5.94264 2.21616 6.52222 2.05272 7.13491L0.44712 7.32715C0.2016 7.35595 0 7.58274 0 7.83113V10.1725C0 10.4201 0.20088 10.6455 0.44712 10.6757L2.05344 10.8687C2.2176 11.4792 2.45736 12.0581 2.76696 12.5937L1.76904 13.8652C1.61712 14.0603 1.6344 14.362 1.81008 14.5377L3.4632 16.1943C3.63816 16.3685 3.94056 16.388 4.13496 16.2354L5.40648 15.2346C5.94216 15.5442 6.52104 15.7854 7.13304 15.9481L7.326 17.5536C7.35552 17.7998 7.5816 18 7.82928 18H10.1707C10.4191 18 10.6452 17.7998 10.674 17.5536L10.867 15.9481C11.4797 15.7839 12.0586 15.5435 12.5935 15.2346L13.865 16.2332C14.0602 16.3858 14.3618 16.3678 14.5368 16.1929L16.1921 14.5362C16.3678 14.362 16.3858 14.0596 16.2324 13.863L15.233 12.593C15.5434 12.0574 15.7831 11.4785 15.9473 10.8672L17.5529 10.6743C17.7991 10.6448 18 10.4201 18 10.171V7.82969C18.0007 7.58058 17.8006 7.35523 17.5536 7.32571ZM9.00072 13.4995C6.51528 13.4995 4.50072 11.485 4.50072 8.99964C4.50072 6.5143 6.51528 4.49982 9.00072 4.49982C11.4862 4.49982 13.5007 6.5143 13.5007 8.99964C13.5007 11.485 11.4869 13.4995 9.00072 13.4995Z" fill="#262626"/>
</svg>
