<svg width="33" height="20" viewBox="0 0 33 20" fill="none" xmlns="http://www.w3.org/2000/svg">
<path d="M21.4457 9.9979C21.4457 12.6498 19.2274 14.7996 16.491 14.7996C13.7547 14.7996 11.5364 12.6498 11.5364 9.9979C11.5364 7.34595 13.7547 5.19618 16.491 5.19618C19.2274 5.19615 21.4457 7.34598 21.4457 9.9979ZM16.5 0C13.6668 0.0127128 10.7301 0.710416 7.95014 2.04621C5.88605 3.07887 3.87447 4.53581 2.12833 6.3341C1.27072 7.25207 0.176853 8.58127 0 9.99946C0.0209 11.2279 1.32357 12.7442 2.12833 13.6648C3.76577 15.3925 5.72495 16.8088 7.95014 17.9538C10.5426 19.2265 13.4121 19.9592 16.5 20C19.3359 19.9871 22.2719 19.2813 25.0488 17.9538C27.1129 16.9211 29.1255 15.4631 30.8717 13.6648C31.7293 12.7469 32.8231 11.4176 33 9.99946C32.9791 8.77099 31.6764 7.25463 30.8717 6.33405C29.2342 4.60638 27.274 3.1912 25.0488 2.04615C22.4577 0.774425 19.5812 0.0467064 16.5 0ZM16.4979 2.4827C20.7912 2.4827 24.2715 5.84851 24.2715 10.0005C24.2715 14.1525 20.7912 17.5184 16.4979 17.5184C12.2046 17.5184 8.72435 14.1525 8.72435 10.0005C8.72435 5.84851 12.2046 2.4827 16.4979 2.4827Z" fill="#E1E1E1"/>
</svg>
