<svg width="38" height="38" viewBox="0 0 38 38" fill="none" xmlns="http://www.w3.org/2000/svg">
<path fill-rule="evenodd" clip-rule="evenodd" d="M19.0006 3.92389C23.4037 3.92389 27.974 4.29979 32.6128 5.10042C32.6821 6.96005 32.7606 9.83453 32.6286 12.2737C32.333 17.7121 31.1361 21.9331 28.8606 25.5579C26.5923 29.172 23.0798 32.2797 19.0006 34.1253C14.9214 32.2797 11.4086 29.172 9.14028 25.5579C6.86511 21.9331 5.6679 17.7121 5.37256 12.2737C5.23995 9.83453 5.31883 6.96005 5.38809 5.10042C10.0269 4.29979 14.5975 3.92389 19.0006 3.92389ZM19.0006 4.44779C14.6599 4.44779 10.253 4.81686 5.89585 5.54535C5.8002 8.30417 5.8002 10.4993 5.89523 12.2454C6.1853 17.5911 7.35735 21.7329 9.58346 25.2793C11.8092 28.8254 15.1468 31.7546 19.0006 33.5492C22.854 31.7546 26.192 28.8254 28.4177 25.2793C30.6438 21.7329 31.8156 17.5911 32.106 12.2454C32.201 10.4993 32.201 8.30417 32.1053 5.54535C27.7482 4.81686 23.341 4.44779 19.0006 4.44779ZM18.9626 20.3285C18.9626 20.3285 19.0484 20.8375 19.0745 20.9852C19.089 21.0688 19.0922 21.0912 19.071 21.1733C19.0025 21.4372 18.6861 22.8285 18.4328 24.2526L18.3933 24.4776C18.2898 25.0774 18.2004 25.6729 18.1484 26.1822C18.1189 26.4717 18.1285 26.541 18.2049 26.7979C18.4213 27.5236 19.222 29.4196 19.3757 29.7653C19.3928 29.8036 19.403 29.8437 19.408 29.885L19.4658 30.3321C19.2092 29.9444 17.8154 27.3802 17.2679 25.9602C17.2033 25.793 17.1909 25.7106 17.2623 25.4031C17.6431 23.7717 18.6732 20.9995 18.9626 20.3285ZM16.93 16.3876C16.93 16.3876 17.0371 16.7348 17.1404 17.1119L17.1765 17.2457C17.2418 17.4914 17.3 17.734 17.321 17.8875C17.3412 18.0351 17.3378 18.0749 17.2853 18.2164C17.158 18.5553 16.9238 19.1004 16.674 19.6576L16.5662 19.8966C16.2597 20.5726 15.9494 21.2257 15.7987 21.5085C15.7244 21.6477 15.6546 21.7385 15.5148 21.8806C15.1959 22.2055 14.5853 22.8196 14.2073 23.1632C14.0701 23.2882 14.0331 23.3948 14.0052 23.5565C13.9601 23.8161 13.9154 24.2592 13.903 24.488C13.8921 24.6892 13.9247 24.7834 14.0368 24.9827C14.703 26.172 16.9269 28.9081 17.5605 29.4827C17.6064 29.5243 17.64 29.5523 17.7369 29.6167C17.83 29.6789 18.1338 29.876 18.1338 29.876C18.1459 29.8844 18.1561 29.8956 18.1639 29.9083L18.2738 30.102C18.2738 30.102 18.2636 30.0969 18.245 30.0877L18.1975 30.0641C18.1594 30.0451 18.1089 30.0199 18.0509 29.9909L17.9097 29.9202C17.6933 29.8115 17.4352 29.6808 17.2996 29.6077C17.2437 29.5775 17.1912 29.5421 17.1425 29.5013C16.4005 28.8845 14.1269 26.2214 13.4583 25.1096C13.2915 24.8319 13.2744 24.742 13.2968 24.4793C13.3387 23.9902 13.4036 23.3752 13.4604 23.1057C13.4949 22.9431 13.5306 22.8476 13.6552 22.704C14.0737 22.2218 14.5841 21.5852 15.0815 20.9321L15.2564 20.7011C16.0102 19.6991 16.7046 18.6962 16.9639 18.1853C17.0232 18.069 17.0282 18.0286 17.0294 17.9189C17.0328 17.6005 16.9313 16.9805 16.9046 16.8238C16.9005 16.7992 16.8993 16.7743 16.9015 16.7495L16.93 16.3876ZM23.1352 15.79L23.3274 15.8736C23.3842 15.8982 23.4361 15.9343 23.479 15.979C24.6575 17.2103 25.6001 18.4869 25.7889 18.8234C25.8252 18.888 25.8501 18.9527 25.8591 19.0267C26.0709 20.8223 25.8889 22.7245 25.4563 24.3792C25.4172 24.5285 25.3734 24.605 25.2299 24.7129C24.768 25.0606 24.0786 25.6151 23.3929 26.1804L23.1768 26.3591C22.3509 27.0435 21.5662 27.7137 21.2333 28.022C21.1497 28.0997 21.0768 28.1874 21.0171 28.2847C20.861 28.5388 20.6226 28.9759 20.5055 29.1929L20.4728 29.2536C20.4494 29.2974 20.4358 29.3229 20.4358 29.3229C20.2805 28.9837 19.942 28.156 19.8258 27.8215C19.7879 27.7123 19.7811 27.6551 19.8212 27.509C20.0106 26.8153 20.906 24.7987 21.0802 24.434L21.0805 24.5832C21.0805 24.605 21.0771 24.6264 21.0702 24.6469C20.9917 24.8854 20.5103 26.4748 20.4125 27.1642C20.3907 27.3174 20.3926 27.3588 20.4125 27.5093C20.4553 27.8311 20.6476 28.4212 20.6476 28.4212C20.6476 28.4212 20.7615 28.1831 20.8678 28.022C20.9199 27.943 20.9513 27.9051 21.0364 27.8205C21.4668 27.3944 22.2012 26.7357 22.966 26.0733L23.2368 25.8397C23.8243 25.3349 24.4109 24.8437 24.8743 24.4685C24.9948 24.3708 25.0398 24.3055 25.0665 24.1202C25.1995 23.2074 25.238 21.5688 25.1578 20.3764C25.1426 20.1513 25.0696 19.9337 24.9429 19.7468C24.6523 19.3168 24.3047 18.9098 23.7777 18.3871C23.7026 18.3122 23.6513 18.2164 23.6321 18.112C23.4783 17.2911 23.1352 15.79 23.1352 15.79ZM13.1686 17.6891C13.2419 17.6655 13.3198 17.6627 13.3944 17.6807C13.7304 17.7616 14.4416 17.936 14.9791 18.0737C15.0546 18.093 15.1487 18.1636 15.1888 18.2304L15.3059 18.4254C15.3468 18.4938 15.3496 18.5777 15.3133 18.6486C15.2156 18.8383 15.0762 19.095 14.9289 19.3598L14.8174 19.5589C14.6122 19.9234 14.4079 20.275 14.2919 20.4601C14.2155 20.5822 14.1729 20.6363 14.0369 20.6845C13.508 20.8708 12.8512 21.0934 12.4608 21.2199C12.381 21.2458 12.354 21.2943 12.3695 21.3829C12.3974 21.5442 12.4875 22.0921 12.522 22.2519C12.5347 22.311 12.5819 22.3579 12.6695 22.3411C12.9002 22.2973 13.5145 22.1468 13.5145 22.1468C13.5145 22.1468 13.3335 22.3144 13.2251 22.4133C13.2052 22.4319 13.1822 22.4456 13.1565 22.454C12.9891 22.51 12.5804 22.6247 12.453 22.6527C12.3537 22.6741 12.2903 22.635 12.2648 22.5224C12.2648 22.5224 12.0906 21.7799 12.0276 21.5275C12.0176 21.4889 12.0077 21.4556 11.9956 21.4177C11.9484 21.2716 11.835 20.9843 11.771 20.8338C11.7636 20.8164 11.7599 20.7977 11.7602 20.7784C11.762 20.6065 11.7937 20.2228 11.7937 20.2228C11.7937 20.2228 12.1698 20.5757 12.3518 20.7032C12.3928 20.7321 12.4173 20.738 12.4676 20.7253C12.7176 20.6609 13.2925 20.4706 13.608 20.3525C13.6801 20.3254 13.7431 20.28 13.7922 20.2206C14.1186 19.8261 14.5279 19.2123 14.7642 18.7494C14.7968 18.6856 14.8031 18.6126 14.7826 18.5441L14.7316 18.3763C14.7167 18.3271 14.6649 18.2718 14.617 18.2534C14.0608 18.0417 13.6223 17.8844 13.1071 17.7087L13.1686 17.6891ZM24.1689 12.9103C24.2912 12.8652 24.4254 12.8684 24.5456 12.919C25.4779 13.3108 27.0456 14.2324 27.917 14.8816C28.0012 14.9444 28.0347 14.9876 28.0568 15.089C28.2614 16.0205 28.3391 17.4604 28.2102 18.6727C28.2009 18.7597 28.1835 18.8119 28.1381 18.9049C27.586 20.0351 26.9645 21.0988 26.3105 21.9193L26.3118 21.9059C26.3203 21.8185 26.3673 21.3258 26.3698 21.0593C26.3701 21.0291 26.3841 21.0015 26.408 20.9831C26.5294 20.8886 26.6962 20.7543 26.7906 20.6725C26.8366 20.6327 26.8621 20.6029 26.886 20.5643C27.1524 20.1334 27.6288 19.2311 27.8208 18.6882C27.8676 18.5557 27.8863 18.4155 27.8748 18.2753C27.8133 17.5188 27.6947 16.4707 27.518 15.7867C27.4878 15.6701 27.4108 15.5715 27.3037 15.5165C27.1512 15.4381 26.8521 15.3016 26.1711 15.0283C26.0766 14.9904 25.9884 14.9379 25.9108 14.8726C25.4642 14.497 24.7661 13.9339 24.3316 13.6099C24.2046 13.5151 24.0425 13.4806 23.8878 13.5157C23.5713 13.5875 23.1685 13.6876 22.9418 13.7492C22.8648 13.77 22.8344 13.7719 22.7549 13.7626C22.7135 13.7578 22.66 13.7525 22.6037 13.7474L22.5186 13.7399C22.4196 13.7314 22.3267 13.7243 22.2903 13.7215L22.2741 13.7203C23.013 13.373 23.7238 13.0733 24.1689 12.9103ZM14.3116 19.0248C14.0805 19.4054 13.8044 19.8096 13.5957 20.062C13.5684 20.095 13.5321 20.1205 13.4908 20.136C13.2625 20.2215 12.8821 20.3503 12.602 20.4358L14.3116 19.0248ZM11.2578 18.5252L11.1215 19.4669L10.6578 18.9222C10.7423 18.7391 10.9892 18.5662 11.2578 18.5252ZM13.7553 13.1932L13.6286 13.3493C13.6215 13.3561 13.6147 13.3627 13.6075 13.3698C13.496 13.4522 13.0268 13.8119 12.8998 13.9127C12.8637 13.9413 12.8494 13.9662 12.8411 14.0112C12.8125 14.1704 12.765 14.473 12.751 14.6405C12.747 14.6897 12.7258 14.7139 12.6758 14.7341C12.4581 14.8227 12.2001 14.916 11.9914 14.9997C11.9466 15.0174 11.9342 15.0242 11.9078 15.0444C11.887 15.0606 11.6097 15.3084 11.6097 15.3084C11.6097 15.3084 12.2125 15.1598 12.4336 15.1097C12.4864 15.0979 12.5091 15.101 12.5578 15.124C12.6035 15.1452 12.6796 15.1753 12.7196 15.1899C12.7811 15.2126 12.8137 15.2117 12.8817 15.1968C13.1308 15.1411 13.5498 15.0416 13.7727 14.9835C13.8886 14.9533 13.9519 14.9219 14.0501 14.8532C14.1569 14.7789 14.4274 14.5759 14.4274 14.5759C14.4274 14.5759 14.4224 14.6116 14.4187 14.6315C14.4159 14.6486 14.4097 14.6583 14.3985 14.6716C14.3435 14.7379 14.2473 14.8458 14.1994 14.8952C14.0898 15.0087 14.0243 15.0491 13.8867 15.1066C13.2532 15.3709 12.1706 15.7813 11.3584 16.0627C11.3053 16.0814 11.2823 16.0966 11.2429 16.137C11.2 16.1805 11.1429 16.244 11.1429 16.244C11.1429 16.244 11.805 16.2922 12.0072 16.3155C12.0727 16.3229 12.1196 16.3444 12.1696 16.3876C12.3358 16.5306 12.8858 17.0975 13.0504 17.2943C13.0504 17.2943 11.4867 17.5545 10.7622 17.7345C10.6727 17.7566 10.628 17.8135 10.6078 17.8853C10.5479 18.0961 10.4066 18.774 10.4066 18.774C10.4066 18.774 10.3563 18.7578 10.2861 18.7174C10.2379 18.6897 10.2134 18.6667 10.1606 18.6107C9.98917 18.4295 9.70749 18.0825 9.57209 17.8813C9.53234 17.8219 9.51557 17.7464 9.56526 17.6857C9.71215 17.5048 10.0072 17.1746 10.1699 17.0048C10.1873 16.9865 10.2094 16.9544 10.2327 16.9084C10.2874 16.7995 10.3596 16.5238 10.3847 16.4242L10.3928 16.392L10.3938 16.3876C10.3938 16.3876 10.3923 16.3886 10.3895 16.3904L10.3598 16.4091C10.3195 16.4344 10.2544 16.4754 10.2264 16.493C10.1845 16.5198 10.173 16.5313 10.1556 16.568C10.1292 16.6233 10.083 16.7107 10.0479 16.7713C10.0364 16.7912 10.0056 16.822 9.98917 16.8347C9.78141 16.9936 9.5519 17.1643 9.38855 17.2793C9.37737 17.2871 9.36308 17.2837 9.35345 17.2744C9.33265 17.2535 9.24538 17.1544 9.22985 17.131C9.21681 17.1114 9.21089 17.0931 9.21089 17.0695C9.2106 17.0281 9.21463 16.9554 9.21867 16.9013C9.22364 16.8372 9.24196 16.8067 9.31991 16.7259C9.40718 16.6354 9.50221 16.5403 9.60221 16.4427C9.84725 16.2362 10.4659 15.7338 11.5705 14.9446C11.5914 14.9297 11.6103 14.9123 11.6255 14.8915C11.7417 14.7348 12.0712 14.3069 12.1525 14.2053C12.164 14.191 12.1768 14.1776 12.1914 14.1661C12.3215 14.0632 12.3858 14.0187 12.5178 13.9354C12.8255 13.7414 13.4215 13.3875 13.7553 13.1932ZM20.4884 12.8433C20.5346 12.8352 20.5822 12.8417 20.6247 12.8619L20.9474 13.0164C20.9791 13.0317 21.0024 13.0606 21.0107 13.0954C21.0545 13.2801 21.1083 13.5248 21.1443 13.7328C21.1589 13.8192 21.1427 13.9075 21.0989 13.9837C20.9654 14.216 20.6912 14.6339 20.5378 14.8583C20.5036 14.9087 20.4996 14.9697 20.5101 15.0297C20.5797 15.4146 20.8697 16.7587 20.8697 16.7587L20.6871 16.5924C20.6508 16.5588 20.6269 16.5233 20.6114 16.477C20.4815 16.0968 20.2387 15.3023 20.1269 14.9159C20.1089 14.8521 20.1225 14.784 20.1645 14.7334C20.3548 14.502 20.6322 14.132 20.7943 13.8976C20.8396 13.8317 20.8545 13.7589 20.8278 13.7045C20.7905 13.628 20.7278 13.5117 20.6676 13.4063C20.6514 13.3771 20.6244 13.3554 20.5924 13.3448L20.3735 13.2745C20.3353 13.2624 20.2943 13.263 20.2564 13.2767C19.7794 13.4499 19.1377 13.6995 18.7452 13.8625C18.6877 13.8864 18.6641 13.8883 18.5946 13.8777C18.4809 13.8609 18.1498 13.8015 17.9874 13.7711C17.9582 13.7655 17.9436 13.7325 17.9585 13.7067L18.1511 13.3728C18.1772 13.3277 18.2203 13.2957 18.2713 13.2841C18.8905 13.143 19.7095 12.9807 20.4884 12.8433ZM13.6358 14.3768C13.6653 14.3743 13.6932 14.3908 13.7047 14.4178C13.7435 14.5083 13.733 14.6094 13.6954 14.6958C13.6808 14.7309 13.6358 14.7651 13.5988 14.7732L13.2898 14.8419C13.2712 14.846 13.2541 14.8311 13.2553 14.8121L13.2842 14.4489C13.2864 14.4244 13.3057 14.4048 13.3302 14.4029L13.6358 14.3768ZM17.1518 12.0433C17.1875 12.043 17.2099 12.0816 17.1922 12.1124L16.4388 13.4111C16.3969 13.4876 16.3267 13.5445 16.2434 13.5697L14.8307 14.0121C14.6667 14.0619 14.5282 14.0886 14.3574 14.1017C14.044 14.1253 13.1133 14.1545 13.1133 14.1545L13.1338 14.1104C13.1434 14.0895 13.1605 14.0731 13.1816 14.064L13.622 13.8769C13.6549 13.8629 13.6838 13.8414 13.7058 13.8137L14.386 12.9755C14.4223 12.9307 14.4698 12.8878 14.5204 12.8611C14.9698 12.6245 15.7689 12.2691 16.3285 12.0819C16.3813 12.0642 16.4524 12.053 16.508 12.0524L17.1518 12.0433ZM16.3965 10.5352C17.9556 10.3981 20.0652 10.3608 22.0804 10.5134C22.195 10.5221 22.3065 10.5492 22.4124 10.594C23.0727 10.8719 24.2441 11.4801 25.5466 12.226C25.6041 12.2589 25.6581 12.2975 25.7078 12.3413C26.0528 12.6457 26.927 13.5412 26.927 13.5412L26.6544 13.4871C26.6162 13.4796 26.5805 13.4647 26.5482 13.4429C25.9966 13.072 25.1913 12.5891 24.5165 12.2487C24.4363 12.2086 24.3497 12.1828 24.2606 12.1734C23.9323 12.1383 23.4885 12.1075 23.1981 12.0957C23.055 12.0898 22.9575 12.0659 22.8174 11.9947C22.5497 11.8588 21.9012 11.5643 21.5783 11.4409C21.4401 11.3881 21.3696 11.3756 21.2342 11.3778C20.6792 11.3859 19.4149 11.4263 18.7692 11.4664C18.7469 11.4676 18.7254 11.4667 18.7037 11.4633L18.3959 11.4151C19.2686 11.2646 21.4258 11.0722 22.3186 11.0252L21.9553 10.9036C21.8851 10.8803 21.8121 10.8679 21.7379 10.866C21.5441 10.8614 21.113 10.8528 20.5535 10.852L20.3624 10.8521C19.5149 10.8537 18.4245 10.8745 17.4189 10.9503C17.331 10.9568 17.2453 10.9779 17.1646 11.0137C16.7583 11.1923 15.7678 11.73 14.7744 12.2823L14.5538 12.4051C14.2969 12.5484 14.0428 12.6909 13.8015 12.8267C13.8015 12.8267 13.9254 12.6672 13.9493 12.6361C13.9704 12.609 13.977 12.6041 14.0055 12.5854C14.0455 12.5592 14.1817 12.4693 14.3192 12.3781L14.4209 12.3105C14.5034 12.2555 14.5771 12.2061 14.6186 12.1775C14.6391 12.1635 14.6521 12.1535 14.6779 12.1343C14.977 11.9085 15.449 11.5106 15.7304 11.264C15.7941 11.2083 15.8481 11.1437 15.8925 11.0715C15.9835 10.9242 16.0829 10.7643 16.1441 10.6757C16.1962 10.5989 16.2854 10.5451 16.3965 10.5352ZM9.75752 6.94904C10.1426 6.90924 10.3578 7.05911 10.3578 7.44932V7.6651C10.3578 8.06432 10.1426 8.22569 9.75752 8.2658C9.22491 8.32145 8.6923 8.38177 8.16062 8.44707V9.03689C8.04913 9.05057 7.93733 9.06425 7.82583 9.07855V7.17228C8.46901 7.09082 9.1128 7.01651 9.75752 6.94904ZM27.6308 6.88723C28.4798 6.96993 29.3283 7.06508 30.1752 7.17203V7.47954C29.809 7.43321 29.4423 7.38906 29.0752 7.34739V8.94647C28.9637 8.93372 28.8522 8.92128 28.7401 8.90885V7.30977C28.3708 7.26904 28.0006 7.2308 27.6308 7.19473V6.88723ZM13.5257 6.63669V6.94388C12.8272 6.9871 12.1291 7.0384 11.4316 7.09779V7.56728C12.0521 7.51411 12.6729 7.46778 13.294 7.42799V7.73549C12.6729 7.77529 12.0521 7.82161 11.4316 7.87447V8.38967C12.1291 8.32997 12.8272 8.27867 13.5257 8.23576V8.54295C12.7179 8.5927 11.9108 8.65364 11.1039 8.72547V6.81889C11.9108 6.74707 12.7179 6.68644 13.5257 6.63669ZM24.3888 7.15888C24.3888 6.73136 24.6006 6.64337 25.078 6.67571C25.4972 6.70462 25.9159 6.73603 26.3348 6.77085C26.7494 6.80505 27.023 6.92165 27.023 7.35787V8.20918C27.023 8.63732 26.7867 8.71443 26.3348 8.67712C25.9159 8.6426 25.4972 8.61089 25.078 8.58229C24.6214 8.5515 24.3888 8.4632 24.3888 8.01019V7.15888ZM21.1406 6.49394C21.9493 6.51322 22.7577 6.54369 23.5661 6.58535V6.89255C22.8674 6.85679 22.1683 6.82912 21.4689 6.80984V7.27902C22.091 7.29643 22.7127 7.32006 23.3341 7.35022V7.65773C22.7127 7.62757 22.091 7.60363 21.4689 7.58653V8.10141C22.1683 8.12069 22.8674 8.14836 23.5661 8.18443V8.49162C22.7577 8.45027 21.9493 8.4198 21.1406 8.40021V6.49394ZM16.9326 6.49226V7.87121C16.9326 8.30743 16.7037 8.40319 16.2425 8.4175C15.841 8.42993 15.4394 8.44486 15.0378 8.46289C14.6099 8.48217 14.3484 8.40071 14.3484 7.96884V6.58989L14.6763 6.5731V8.01019C14.6763 8.09756 14.7512 8.16876 14.8506 8.16409C15.377 8.13953 15.9031 8.11963 16.4295 8.1044C16.5295 8.1016 16.5959 8.02511 16.5959 7.93774V6.50066C16.708 6.49755 16.8202 6.49475 16.9326 6.49226ZM24.8913 6.97077C24.7916 6.96393 24.7168 7.03389 24.7168 7.1337V8.07642C24.7168 8.16378 24.7916 8.25551 24.8913 8.26235C25.4351 8.29841 25.9783 8.33946 26.5215 8.38547C26.6084 8.39293 26.6954 8.31303 26.6954 8.22597V7.28294C26.6954 7.18345 26.6084 7.10105 26.5215 7.09359C25.9783 7.04757 25.4351 7.00653 24.8913 6.97077ZM18.3828 6.47038C18.9856 6.46602 19.5884 6.4682 20.1909 6.47628V6.78347C19.5468 6.77508 18.9024 6.77321 18.258 6.7785C18.1707 6.77943 18.0834 6.85499 18.0834 6.94236V7.89751C18.0834 7.98488 18.1707 8.07132 18.258 8.07038C18.8359 8.06541 19.4136 8.06634 19.9915 8.07287V7.55767C19.6561 7.55394 19.3207 7.55208 18.9856 7.55239V7.24488C19.4303 7.24488 19.875 7.2483 20.3198 7.25483V8.38441C19.6949 8.37509 19.0701 8.3726 18.4452 8.37633C17.9878 8.37944 17.7552 8.30047 17.7552 7.85585V7.02506C17.7552 6.60998 17.9629 6.47348 18.3828 6.47038ZM9.88282 7.24577L9.8569 7.24628C9.29106 7.30474 8.72553 7.36848 8.16062 7.43781V8.13956C8.72553 8.07054 9.29106 8.00649 9.8569 7.94835C9.94355 7.93902 10.0305 7.85973 10.0305 7.77672V7.39055C10.0305 7.30318 9.94355 7.23727 9.8569 7.24628L9.88282 7.24577Z" fill="black"/>
</svg>
