<svg width="19" height="16" viewBox="0 0 19 16" fill="none" xmlns="http://www.w3.org/2000/svg">
<path d="M18.2083 4.79999H16.9584C16.6076 4.79999 16.2988 5.03357 16.1991 5.37279L15.4296 7.99993H15.3441L15.0021 6.95038C14.8945 6.62158 14.592 6.39999 14.25 6.39999H12.6666V5.59997C12.6666 5.15837 12.3128 4.79999 11.875 4.79999H10.2916V4H11.0833C11.5211 4 11.875 3.64162 11.875 3.20002V0.799986C11.875 0.358386 11.5211 0 11.0833 0H4.75C4.31222 0 3.95835 0.358386 3.95835 0.799986V3.19998C3.95835 3.64158 4.31222 3.99996 4.75 3.99996H5.54166V4.79995H3.16666C2.72888 4.79999 2.375 5.15837 2.375 5.59997V8.79993H1.58335V7.99993C1.58335 7.5584 1.22947 7.19998 0.791691 7.19998C0.353875 7.19998 0 7.5584 0 7.99993V11.1999C0 11.6415 0.353875 11.9999 0.791655 11.9999C1.22943 11.9999 1.58331 11.6415 1.58331 11.1999V10.3999H2.375V11.9999C2.375 12.1183 2.40113 12.2351 2.45178 12.3424L3.57675 14.7424C3.70737 15.0215 3.98525 15.2 4.29163 15.2H13.8336C14.1131 15.2 14.372 15.0504 14.5145 14.808L15.223 13.6H15.4826L16.2212 15.4936C16.3416 15.7992 16.6337 16 16.9583 16H18.2083C18.6461 16 19 15.6416 19 15.2V5.59997C19 5.15837 18.6461 4.79999 18.2083 4.79999Z" fill="#262626"/>
</svg>
