<svg width="38" height="38" viewBox="0 0 38 38" fill="none" xmlns="http://www.w3.org/2000/svg">
<path d="M17.9227 4.75468C17.5512 5.44882 12.5432 14.8171 10.386 18.8422C10.3113 18.9814 10.317 19.0821 10.3901 19.2184C12.5035 23.1624 16.7869 31.1631 16.8311 31.2379C16.8754 31.1637 21.1587 23.1624 23.2722 19.2189C23.3453 19.0826 23.3516 18.982 23.2762 18.8428C22.0668 16.5936 20.8654 14.3398 19.656 12.0906C19.5784 11.9468 19.5732 11.8393 19.6537 11.6944C19.9861 11.0951 20.3047 10.4884 20.6417 9.85923C20.6895 9.94032 23.8945 15.923 25.4662 18.8543C25.5324 18.9774 25.5381 19.0694 25.4702 19.1965C22.983 23.8381 20.4997 28.482 18.0193 33.1276C17.9532 33.2519 17.8859 33.3082 17.7352 33.3059C17.121 33.2956 16.5062 33.2984 15.892 33.3042C15.7781 33.3053 15.7178 33.2691 15.6643 33.1679C13.1712 28.4993 10.6759 23.8318 8.17767 19.166C8.12591 19.0688 8.12131 18.9964 8.1748 18.8957C10.6736 14.2288 13.1684 9.56134 15.6672 4.89558C15.6988 4.83692 15.773 4.76158 15.8282 4.76101C16.5137 4.75123 17.1992 4.75468 17.9227 4.75468Z" fill="black"/>
<path d="M20.7637 7.6129C19.6204 9.74363 16.4689 15.6303 14.7511 18.8365C14.678 18.9734 14.6729 19.074 14.7476 19.2126C15.9571 21.4624 17.1584 23.7156 18.3679 25.9648C18.4455 26.1091 18.4495 26.2161 18.369 26.361C18.0366 26.9603 17.718 27.567 17.3804 28.1967C17.3356 28.1208 14.1311 22.1375 12.5559 19.2005C12.4898 19.0774 12.4846 18.9854 12.5525 18.8583C15.0392 14.2173 17.5225 9.5734 20.0029 4.92777C20.0696 4.80298 20.1374 4.74777 20.287 4.75007C20.9012 4.76042 21.5159 4.75755 22.1301 4.75179C22.2446 4.75064 22.3038 4.78803 22.3579 4.88867C24.8515 9.5573 27.3468 14.2248 29.8451 18.8905C29.8974 18.9877 29.9008 19.0608 29.8474 19.1608C27.3491 23.8266 24.8544 28.4941 22.3556 33.1598C22.3239 33.2185 22.2498 33.2933 22.1946 33.2938C21.509 33.303 20.8235 33.2996 20.1052 33.2996C20.1524 33.2076 25.1626 23.8306 27.6373 19.212C27.712 19.0728 27.7063 18.9722 27.6327 18.8359C25.5192 14.8919 21.2359 6.89115 21.1916 6.81697C21.1835 6.83077 21.0265 7.12234 20.7637 7.6129Z" fill="black"/>
</svg>
