<svg width="165" height="163" viewBox="0 0 165 163" fill="none" xmlns="http://www.w3.org/2000/svg">
<path d="M100.034 20.9714C116.531 56.8766 133.162 92.7819 149.792 128.951C150.324 128.423 150.724 128.027 151.123 127.631C156.045 120.239 159.637 112.451 162.032 103.87C164.161 96.346 165.225 88.6897 164.959 81.0335C164.56 63.3449 158.972 47.2403 148.196 33.1158C141.81 24.6676 133.96 17.8033 124.913 12.3911C117.862 8.16699 110.278 4.86688 102.029 3.15082C100.699 2.88681 99.3686 2.62281 98.0382 2.3588C97.1068 2.09479 96.5747 2.4908 96.1755 3.28283C92.7164 10.0151 89.2573 16.7473 85.7981 23.6115C79.8111 35.3599 73.8242 46.9763 67.9702 58.7247C63.4467 67.569 58.9233 76.5453 54.3998 85.3896C49.078 95.818 43.7563 106.378 38.3015 116.807C34.4432 124.463 30.5849 132.119 26.5936 139.775C25.9284 141.096 26.0614 141.888 27.2588 142.812C29.6536 144.66 32.0484 146.64 34.3101 148.488C35.1084 149.148 35.5075 149.016 36.0397 148.092C39.898 140.435 43.6232 132.779 47.4815 125.123C52.8032 114.431 58.258 103.606 63.5798 92.9139C68.9015 82.0895 74.3563 71.3971 79.6781 60.5728C85.399 49.2204 91.1199 37.868 96.7077 26.3836C97.639 24.5355 98.4373 22.8195 99.3686 20.9714C99.7677 20.9714 99.9008 20.9714 100.034 20.9714Z" fill="#737373"/>
<path d="M16.618 129.346C17.6824 127.366 18.6137 125.518 19.678 123.538C26.8624 109.281 34.0468 95.0248 41.2311 80.9004C47.4842 68.492 53.6042 56.0835 59.8573 43.6751C66.1104 31.1347 72.4965 18.5943 78.7495 5.92183C79.4147 4.73379 80.08 3.41375 80.6121 2.22571C81.1443 1.03767 80.8782 0.509649 79.5478 0.773658C74.6252 1.43368 69.5695 1.82969 64.6469 2.88573C51.7416 5.65782 40.4329 11.466 30.3216 19.7823C20.2102 28.0986 12.6267 38.3949 7.43801 50.4073C4.378 57.5356 2.38234 64.9278 1.45103 72.5841C0.652768 80.3724 0.652768 88.0286 1.98321 95.8169C3.71278 106.113 7.30496 115.618 12.6267 124.462C13.425 125.914 14.3563 127.234 15.2876 128.554C15.5537 128.95 15.6867 129.346 15.8198 129.742C16.2189 129.61 16.485 129.478 16.618 129.346Z" fill="#737373"/>
<path d="M135.957 138.852C132.099 130.535 128.241 122.087 124.382 113.639H69.9674C66.7744 119.975 63.4483 126.311 60.3883 132.779C56.9291 139.776 53.7361 146.904 50.41 154.032C49.4787 156.012 49.7447 156.276 51.7404 156.936C55.9978 158.256 60.1222 159.84 64.5126 160.764C72.4952 162.612 80.6109 163.14 88.8596 162.216C92.5849 161.82 96.3101 161.556 99.9023 160.632C105.224 159.18 110.546 157.332 115.734 155.088C123.052 151.92 129.438 147.3 135.292 142.152C136.223 140.964 136.622 140.304 135.957 138.852Z" fill="#737373"/>
<path d="M117.726 98.9857C114.799 92.3855 111.739 85.9173 108.812 79.317C105.752 72.7168 102.825 66.2486 99.7654 59.6484C99.4993 58.9884 99.1002 58.3283 98.568 57.4043C97.2376 59.9124 96.1732 62.0245 95.1089 64.1365C94.0445 66.2486 92.9802 68.4927 91.7828 70.6047C86.9932 80.1091 82.2036 89.6134 77.4141 98.9857H117.726Z" fill="#737373"/>
</svg>
