<svg width="202" height="32" viewBox="0 0 202 32" fill="none" xmlns="http://www.w3.org/2000/svg">
<path d="M90.4151 9.75357L94.6282 6.64453H80.5234V25.2683H94.6282V22.1592H84.5534V17.4042H93.1627V14.2952H84.5534V9.75357H90.4151Z" fill="#21A038"/>
<path d="M69.8678 13.899H64.983V9.75357H72.7986L77.0117 6.64453H60.9531V25.2683H69.3488C74.0504 25.2683 76.7675 23.1346 76.7675 19.416C76.7675 15.8497 74.3251 13.899 69.8678 13.899ZM69.1961 22.1592H64.983V17.008H69.1961C71.7606 17.008 72.9513 17.8615 72.9513 19.5989C72.9513 21.3363 71.669 22.1592 69.1961 22.1592Z" fill="#21A038"/>
<path d="M106.046 6.64453H98.3828V25.2683H102.413V19.9951H106.076C110.961 19.9951 114.014 17.4347 114.014 13.3198C114.014 9.20492 110.961 6.64453 106.046 6.64453ZM105.954 16.8861H102.382V9.75357H105.954C108.549 9.75357 109.954 11.0338 109.954 13.3198C109.954 15.6059 108.549 16.8861 105.954 16.8861Z" fill="#21A038"/>
<path d="M54.0538 21.2465C52.9853 21.8256 51.7946 22.1304 50.5734 22.1304C46.9404 22.1304 44.3149 19.5396 44.3149 15.9733C44.3149 12.4071 46.9404 9.81619 50.5734 9.81619C51.8862 9.78571 53.1685 10.2124 54.237 10.9745L57.1373 8.84081L56.9541 8.65792C55.275 7.16436 53.0158 6.40234 50.4513 6.40234C47.6731 6.40234 45.1392 7.34725 43.3074 9.05417C41.4756 10.8221 40.4376 13.291 40.4986 15.8514C40.4681 18.4422 41.4756 20.9417 43.3074 22.7705C45.2307 24.5689 47.7952 25.5747 50.4208 25.5138C53.3211 25.5138 55.8551 24.5079 57.5647 22.6791L54.9697 20.7588L54.0538 21.2465Z" fill="#21A038"/>
<path d="M162.462 6.67501V25.2988H166.492V17.6786H175.071V25.2988H179.101V6.67501H175.071V14.3257H166.492V6.67501H162.462ZM155.532 25.2988H159.775L151.899 6.67501H147.808L139.778 25.2988H143.839L145.457 21.5496H154.005L155.532 25.2988ZM146.678 18.4406L149.792 10.9728L152.723 18.4406H146.678ZM188.137 17.77H190.641L196.808 25.2683H201.998L193.755 15.6364L200.96 6.64453H196.35L190.366 14.6305H188.137V6.64453H184.107V25.2683H188.137V17.77ZM126.467 13.9294V9.78405H137V6.67501H122.438V25.2988H130.833C135.535 25.2988 138.252 23.1651 138.252 19.4465C138.252 15.8802 135.81 13.9294 131.352 13.9294H126.467ZM126.467 22.1897V17.0385H130.681C133.245 17.0385 134.436 17.8919 134.436 19.6293C134.436 21.3667 133.184 22.2202 130.681 22.2202H126.467V22.1897Z" fill="#21A038"/>
<path d="M27.8878 6.52344C28.6205 7.46834 29.2311 8.50469 29.7501 9.60199L15.6454 19.9959L9.72266 16.2773V11.8271L15.6149 15.5153L27.8878 6.52344Z" fill="#21A038"/>
<path d="M3.70869 15.9722C3.70869 15.7588 3.70869 15.5759 3.73922 15.3626L0.167248 15.1797C0.167248 15.4235 0.136719 15.6979 0.136719 15.9417C0.136719 20.209 1.87691 24.0801 4.68564 26.8843L7.21961 24.3544C5.052 22.2207 3.70869 19.2641 3.70869 15.9722Z" fill="url(#paint0_linear_1565_32074)"/>
<path d="M15.6171 4.08578C15.8308 4.08578 16.014 4.08578 16.2277 4.11626L16.4109 0.550012C16.1667 0.550012 15.8919 0.519531 15.6477 0.519531C11.3735 0.519531 7.49623 2.25693 4.6875 5.06117L7.22146 7.59107C9.35854 5.42693 12.3505 4.08578 15.6171 4.08578Z" fill="url(#paint1_linear_1565_32074)"/>
<path d="M15.6141 27.8608C15.4004 27.8608 15.2172 27.8608 15.0035 27.8303L14.8203 31.3965C15.0646 31.3965 15.3393 31.427 15.5836 31.427C19.8577 31.427 23.735 29.6896 26.5437 26.8854L24.0097 24.3555C21.8727 26.5501 18.9113 27.8608 15.6141 27.8608Z" fill="url(#paint2_linear_1565_32074)"/>
<path d="M22.3337 6.1577L25.3562 3.93261C22.7001 1.79895 19.3113 0.488281 15.6172 0.488281V4.05453C18.1206 4.08501 20.4409 4.84703 22.3337 6.1577Z" fill="url(#paint3_linear_1565_32074)"/>
<path d="M31.1236 15.973C31.1236 15.0281 31.032 14.1136 30.8793 13.1992L27.5516 15.6682C27.5516 15.7596 27.5516 15.8815 27.5516 15.973C27.5516 19.4783 26.0251 22.6178 23.6133 24.7819L26.0251 27.4337C29.1392 24.6295 31.1236 20.5146 31.1236 15.973Z" fill="#21A038"/>
<path d="M15.6159 27.8598C12.105 27.8598 8.96041 26.3357 6.7928 23.9277L4.13672 26.3357C6.97598 29.4752 11.067 31.426 15.6159 31.426V27.8598Z" fill="url(#paint4_linear_1565_32074)"/>
<path d="M7.64702 7.16355L5.23518 4.51172C2.09062 7.34643 0.136719 11.4309 0.136719 15.9725H3.70869C3.70869 12.4977 5.23518 9.32768 7.64702 7.16355Z" fill="url(#paint5_linear_1565_32074)"/>
<defs>
<linearGradient id="paint0_linear_1565_32074" x1="4.31615" y1="26.4504" x2="0.670584" y2="15.9295" gradientUnits="userSpaceOnUse">
<stop offset="0.1444" stop-color="#F2E913"/>
<stop offset="0.3037" stop-color="#E7E518"/>
<stop offset="0.5823" stop-color="#CADB26"/>
<stop offset="0.891" stop-color="#A3CD39"/>
</linearGradient>
<linearGradient id="paint1_linear_1565_32074" x1="5.7057" y1="4.64769" x2="14.9692" y2="1.12318" gradientUnits="userSpaceOnUse">
<stop offset="0.0592" stop-color="#0FA8E0"/>
<stop offset="0.5385" stop-color="#0099F9"/>
<stop offset="0.9234" stop-color="#0291EB"/>
</linearGradient>
<linearGradient id="paint2_linear_1565_32074" x1="14.6106" y1="28.3849" x2="25.6513" y2="25.8936" gradientUnits="userSpaceOnUse">
<stop offset="0.1226" stop-color="#A3CD39"/>
<stop offset="0.2846" stop-color="#86C339"/>
<stop offset="0.8693" stop-color="#21A038"/>
</linearGradient>
<linearGradient id="paint3_linear_1565_32074" x1="14.8833" y1="2.77004" x2="24.065" y2="5.59846" gradientUnits="userSpaceOnUse">
<stop offset="0.0566" stop-color="#0291EB"/>
<stop offset="0.79" stop-color="#0C8ACB"/>
</linearGradient>
<linearGradient id="paint4_linear_1565_32074" x1="5.04495" y1="26.915" x2="14.9043" y2="30.5928" gradientUnits="userSpaceOnUse">
<stop offset="0.1324" stop-color="#F2E913"/>
<stop offset="0.2977" stop-color="#EBE716"/>
<stop offset="0.5306" stop-color="#D9E01F"/>
<stop offset="0.8023" stop-color="#BBD62D"/>
<stop offset="0.9829" stop-color="#A3CD39"/>
</linearGradient>
<linearGradient id="paint5_linear_1565_32074" x1="2.85466" y1="16.4032" x2="6.79681" y2="6.16467" gradientUnits="userSpaceOnUse">
<stop offset="0.0698" stop-color="#A3CD39"/>
<stop offset="0.2599" stop-color="#81C55F"/>
<stop offset="0.9216" stop-color="#0FA8E0"/>
</linearGradient>
</defs>
</svg>
