<svg width="20" height="15" viewBox="0 0 20 15" fill="none" xmlns="http://www.w3.org/2000/svg">
<path d="M10.5292 7.22209C10.3541 7.19564 10.1783 7.1775 10.0029 7.1775C8.85126 7.1775 7.70039 7.67134 7.08291 8.68418C6.16249 10.1945 6.73916 12.1978 8.33329 13.0694C8.85831 13.3567 9.43457 13.421 9.99996 13.421C11.1516 13.421 12.2995 12.855 12.9167 11.8421C13.6133 10.699 13.4379 9.38721 12.6354 8.40355L13.75 4.3421L10.5292 7.22209ZM11.4429 11.1245C11.1462 11.6116 10.595 11.8421 9.99996 11.8421C9.70626 11.8421 9.42414 11.8429 9.16706 11.702C8.37122 11.267 8.09788 10.2995 8.55704 9.54593C8.85378 9.05884 9.40794 8.75605 10.0033 8.75605C10.2966 8.75605 10.5758 8.8275 10.8329 8.96802C11.6287 9.40343 11.902 10.3705 11.4429 11.1245ZM9.99996 0C4.47708 0 0 4.51302 0 9.86843C0 11.8263 0.600416 13.4759 1.62958 15H5.83333V13.421H2.49999C1.89708 12.2846 1.66667 11.1596 1.66667 9.86843C1.66667 5.41263 5.405 1.57895 9.99996 1.57895C14.595 1.57895 18.3333 5.41263 18.3333 9.86843C18.3333 11.1596 18.1029 12.2846 17.5 13.421H14.1666V15H18.3333C19.3625 13.4759 20 11.8263 20 9.86843C20 4.51302 15.5229 0 9.99996 0Z" fill="#262626"/>
</svg>
