<svg width="76" height="76" viewBox="0 0 76 76" fill="none" xmlns="http://www.w3.org/2000/svg">
<path d="M61.4677 66.0785L58.6472 57.5725C57.6623 54.6177 55.1105 52.424 52.0662 51.842L43.8735 50.3647V49.7379C45.3061 48.9321 46.5149 47.8128 47.4998 46.5145H49.9621C51.9767 46.5145 53.6331 44.8581 53.6331 42.8435V28.1593C53.6331 19.3846 46.5149 12.2664 37.7402 12.2664C28.9655 12.2664 21.8472 19.3846 21.8472 28.1593V36.7102C21.8472 39.0829 23.5037 41.0527 25.7421 41.5004C26.4136 45.0372 28.6073 47.9919 31.6516 49.7379V50.3647L23.4589 51.842C20.3698 52.424 17.8628 54.5729 16.8779 57.5725L16.3854 59.0498L12.2219 54.8863C11.7294 54.3939 11.7294 53.6328 12.2219 53.1403L17.0569 48.3053L7.96886 39.262L2.50706 44.7238C0.895378 46.3355 0 48.4844 0 50.7676C0 53.0508 0.895378 55.1997 2.50706 56.8114L19.0268 73.3311C20.6385 74.9428 22.7874 75.8382 25.0706 75.8382C27.3538 75.8382 29.5027 74.9428 31.0696 73.3759L37.0239 67.9141L35.1436 66.0785H61.4677ZM51.2156 42.8435C51.2156 43.515 50.6784 44.0523 50.0068 44.0523H48.9771C49.3353 43.2464 49.6039 42.3958 49.783 41.5004C50.3202 41.4109 50.7679 41.187 51.2604 40.9184V42.8435H51.2156ZM50.0068 38.8143V34.606C50.7231 35.0089 51.2156 35.8148 51.2156 36.7102C51.2156 37.6055 50.7231 38.4114 50.0068 38.8143ZM25.5183 38.8143C24.802 38.4114 24.3095 37.6055 24.3095 36.7102C24.3095 35.8148 24.802 35.0089 25.5183 34.606V38.8143ZM25.5183 30.5768V31.9647C25.0706 32.099 24.6677 32.2333 24.3095 32.4571V28.1145C24.3095 20.6829 30.3533 14.6391 37.7849 14.6391C45.2166 14.6391 51.2604 20.6829 51.2604 28.1145V32.4571C50.9022 32.2333 50.4545 32.0542 50.0516 31.9647V30.5768H48.7981C45.1718 30.5768 41.7694 29.189 39.2175 26.5924L37.7849 25.1598L36.3523 26.5924C33.8005 29.1442 30.3981 30.5768 26.7718 30.5768H25.5183ZM27.9805 39.1724V32.9943C31.6516 32.7257 35.0988 31.2036 37.7849 28.6518C40.4711 31.2036 43.9183 32.7257 47.5893 32.9943V39.1724C47.5893 40.9632 47.0969 42.6197 46.2463 44.0523H37.7849V46.5145H44.2317C42.4857 48.0367 40.2472 48.9768 37.7849 48.9768C32.3679 48.9321 27.9805 44.5447 27.9805 39.1724ZM41.456 50.8571V50.9019L37.7849 54.5729L34.1139 50.9019V50.8571C35.2779 51.2153 36.4866 51.4391 37.7849 51.4391C39.0385 51.3944 40.292 51.2153 41.456 50.8571ZM19.2058 58.3783C19.9221 56.2742 21.7129 54.7072 23.9066 54.3043L32.4574 52.7374L37.7849 58.0649L43.1124 52.7374L51.6633 54.3043C53.857 54.7072 55.6477 56.2742 56.364 58.3783L58.11 63.661H32.7708L28.0253 58.9155L22.7426 63.7058C22.2949 64.1535 21.4891 64.1535 20.9966 63.7058L18.3105 61.0197L19.2058 58.3783ZM7.96886 42.7092L13.565 48.3053L12.2219 49.6484L6.62579 44.0523L7.96886 42.7092ZM29.4132 71.6299C28.2492 72.7939 26.727 73.4206 25.0706 73.4206C23.4589 73.4206 21.892 72.7939 20.728 71.6299L4.25304 55.1102C3.08905 53.9462 2.46229 52.424 2.46229 50.7676C2.46229 49.1111 3.08905 47.589 4.25304 46.425L4.92458 45.7535L10.5207 51.3496L10.4759 51.3944C9.04331 52.827 9.04331 55.1549 10.4759 56.5875L19.2506 65.407C19.9221 66.0785 20.8623 66.4815 21.8472 66.4815C22.8321 66.4815 23.7723 66.0785 24.399 65.4518L24.4886 65.3622L30.1295 71.0031L29.4132 71.6299ZM31.9202 69.3467L26.2793 63.7058L27.891 62.2284L33.4871 67.8245L31.9202 69.3467Z" fill="#262626"/>
<path d="M72.0285 0H54.882C52.8674 0 51.2109 1.65645 51.2109 3.67105V13.4754C51.2109 15.49 52.8674 17.1465 54.882 17.1465H58.1501L56.8966 24.5333L68.7156 17.1465H72.0285C74.0431 17.1465 75.6995 15.49 75.6995 13.4754V3.67105C75.6995 1.65645 74.0431 0 72.0285 0ZM73.2372 13.4754C73.2372 14.147 72.7 14.6842 72.0285 14.6842H67.9993L60.2095 19.5192L61.0601 14.6842H54.882C54.2105 14.6842 53.6732 14.147 53.6732 13.4754V3.67105C53.6732 2.99951 54.2105 2.46229 54.882 2.46229H72.0285C72.7 2.46229 73.2372 2.99951 73.2372 3.67105V13.4754Z" fill="#262626"/>
<path d="M70.8248 4.87964H56.1406V7.34193H70.8248V4.87964Z" fill="#CA0100"/>
<path d="M65.945 9.80444H56.1406V12.2667H65.945V9.80444Z" fill="#CA0100"/>
<path d="M70.8217 9.80444H68.3594V12.2667H70.8217V9.80444Z" fill="#CA0100"/>
<path d="M37.7849 3.67041C21.8024 3.67041 8.01363 14.7283 4.43212 30.1736L2.10414 26.3235L0 27.5322L4.29781 34.6952L11.4608 30.3974L10.2073 28.2933L6.89441 30.2631C10.3416 16.1609 23.056 6.08793 37.7849 6.08793C41.0083 6.08793 44.1869 6.58039 47.2312 7.52053L47.9475 5.19255C44.6346 4.16287 41.2321 3.67041 37.7849 3.67041Z" fill="#CA0100"/>
<path d="M75.1248 27.0849L67.9618 22.7871L63.664 29.9501L65.7681 31.2037L67.917 27.6221C69.0363 30.935 69.6182 34.3822 69.6182 37.919C69.6182 45.2163 67.1112 52.3346 62.5 57.9307L64.3803 59.4528C69.3049 53.3643 72.0358 45.7088 72.0358 37.8742C72.0358 34.1136 71.4538 30.4874 70.245 26.9954L73.8265 29.1443L75.1248 27.0849Z" fill="#CA0100"/>
</svg>
