<svg width="104" height="66" viewBox="0 0 104 66" fill="none" xmlns="http://www.w3.org/2000/svg">
<path d="M30.7395 30.8369C29.4404 30.8369 28.2369 30.337 27.3199 29.4142C26.4029 28.4914 25.9062 27.261 25.9062 25.9729C25.9062 24.6848 26.4029 23.4544 27.3199 22.5316L34.3118 15.4952C35.2097 14.5916 36.4514 14.0725 37.7314 14.0725H59.2993C60.5793 14.0725 61.821 14.5916 62.7189 15.4952L69.7108 22.5316C70.6278 23.4544 71.1245 24.6848 71.1245 25.9729C71.1245 28.6644 68.9467 30.8561 66.2722 30.8561C66.2722 30.8369 30.7395 30.8369 30.7395 30.8369ZM29.2303 24.4541C28.619 25.0501 28.4279 26.0113 28.7718 26.7996C29.0966 27.607 29.8607 28.1261 30.7204 28.1261H33.1847V20.4745L29.2303 24.4541ZM53.3581 28.1261H66.3104C67.17 28.1261 67.9533 27.607 68.2589 26.7996C68.6028 26.0113 68.4118 25.0501 67.7813 24.4541L60.8085 17.4369C60.4074 17.0332 59.8533 16.8025 59.2993 16.8025H53.3581V28.1261ZM37.7314 16.7833C37.1774 16.7833 36.6234 17.014 36.2222 17.4177L35.8974 17.7445V28.1261H50.6645V16.7833H37.7314Z" fill="#262626"/>
<path d="M81.687 66C75.8604 66 70.8362 61.6167 70.0147 55.7914L69.9574 55.4454H34.0617L34.0044 55.7914C33.2594 60.9822 29.1521 65.1349 23.9941 65.8654C23.4401 65.9423 22.867 65.9808 22.2939 65.9808C16.4673 65.9808 11.4431 61.5974 10.6216 55.7722L10.5643 55.4262H8.34827C3.76341 55.4262 0.0191036 51.658 0 47.0248V36.4701C0 31.8561 3.74431 28.088 8.34827 28.0687H8.94049C10.4497 28.0687 11.8633 27.4728 12.914 26.4154L29.7825 9.43956C31.3299 7.88232 33.4695 6.97874 35.6473 6.97874H47.1477V1.36499C47.1477 0.615205 47.759 0 48.504 0H55.496C56.241 0 56.8523 0.615205 56.8523 1.36499V7.03641H61.3608C63.5577 7.03641 65.6973 7.93999 67.2256 9.49723L84.094 26.4731C85.1638 27.5304 86.5775 28.1264 88.0676 28.1264H95.6517C100.237 28.1264 103.981 31.8946 104 36.5278V47.0824C104 51.6965 100.256 55.4646 95.6517 55.4838H93.4166L93.3593 55.8299C92.6143 61.0207 88.507 65.1733 83.349 65.9039C82.8141 65.9615 82.241 66 81.687 66ZM81.687 44.91C76.6628 44.91 72.5555 49.0242 72.5555 54.0996C72.5555 59.1558 76.6436 63.2893 81.687 63.2893C86.7112 63.2893 90.7994 59.1558 90.8185 54.0996C90.8185 49.0242 86.7303 44.91 81.687 44.91ZM22.313 44.91C17.2888 44.91 13.1815 49.0242 13.1815 54.0996C13.1815 59.1558 17.2697 63.2893 22.313 63.2893C27.3373 63.2893 31.4254 59.1558 31.4445 54.0996C31.4445 49.0242 27.3373 44.91 22.313 44.91ZM22.313 42.18C22.6951 42.18 23.0772 42.1992 23.4592 42.2377C23.5356 42.2377 23.612 42.2569 23.6885 42.2761C23.7458 42.2761 23.784 42.2954 23.8413 42.2954C24.0896 42.3338 24.3571 42.3723 24.5863 42.4107C24.6819 42.4299 24.7774 42.4492 24.8729 42.4684C24.9302 42.4876 24.9684 42.4876 25.0257 42.5068C25.2359 42.5645 25.4651 42.6222 25.6752 42.6799C25.809 42.7183 25.9236 42.7568 26.0573 42.7952L26.1337 42.8144C26.3248 42.8721 26.5349 42.949 26.745 43.0452C26.8979 43.1028 27.0316 43.1797 27.1844 43.2374C27.4137 43.3335 27.5856 43.4297 27.7384 43.5066C27.8722 43.5835 28.025 43.6604 28.1587 43.7373C28.3306 43.8334 28.5026 43.9487 28.6936 44.0641C28.8273 44.1602 28.9611 44.2371 29.0948 44.3332C29.2476 44.4294 29.3813 44.5447 29.5342 44.6601L29.6488 44.7562C29.7634 44.8331 29.8589 44.9292 29.9544 45.0061C30.1264 45.1407 30.2601 45.2945 30.432 45.4291L30.5276 45.506C30.604 45.5829 30.6804 45.6598 30.7759 45.7367C30.9287 45.9097 31.0816 46.0635 31.2344 46.2365C31.2726 46.2942 31.3108 46.3327 31.349 46.3711C31.4063 46.4288 31.4636 46.4865 31.5018 46.5634C31.6547 46.7556 31.8075 46.9671 31.9985 47.217C32.0176 47.2555 32.0558 47.2939 32.0749 47.3324C32.094 47.3708 32.1323 47.4093 32.1514 47.4477C32.3424 47.7361 32.5334 48.0629 32.7054 48.3897C32.7245 48.4282 32.7627 48.4859 32.7818 48.5435C32.8009 48.6012 32.8391 48.6397 32.8582 48.6974C32.9919 48.9473 33.1065 49.178 33.2021 49.3895C33.2403 49.4664 33.2594 49.5433 33.2976 49.6202C33.3167 49.6778 33.3358 49.7355 33.3549 49.7932C33.4313 50.0047 33.5268 50.2161 33.5841 50.4276C33.6223 50.5237 33.6414 50.6391 33.6796 50.7352L33.7179 50.8698C33.7943 51.1005 33.8516 51.312 33.8898 51.5042C33.928 51.658 33.9471 51.8118 33.9853 51.9849C34.0044 52.0425 34.0044 52.1002 34.0235 52.1771C34.0426 52.254 34.0426 52.3117 34.0617 52.3886L34.119 52.7346H69.9192L69.9765 52.3886C69.9956 52.3117 69.9956 52.254 70.0147 52.1771C70.0338 52.1194 70.0338 52.0618 70.0529 52.0041L70.072 51.9272C70.0911 51.7926 70.1293 51.658 70.1484 51.5235C70.2057 51.312 70.263 51.1005 70.3204 50.889L70.3586 50.7544C70.3968 50.6391 70.4159 50.543 70.4541 50.4276C70.5114 50.2354 70.5878 50.0623 70.6451 49.8701L70.6833 49.774L70.7215 49.6586C70.7597 49.5625 70.7979 49.4664 70.8361 49.3702C70.9508 49.1395 71.0654 48.8896 71.18 48.6781C71.1991 48.6397 71.2373 48.582 71.2564 48.5243C71.2755 48.4666 71.3137 48.4282 71.3328 48.3705C71.5048 48.0437 71.6958 47.7361 71.906 47.4285C71.9251 47.39 71.9633 47.3516 71.9824 47.3131C72.0015 47.2747 72.0397 47.2362 72.0588 47.1978C72.1925 46.9863 72.3644 46.7748 72.5555 46.5249C72.6128 46.448 72.6701 46.3903 72.7274 46.3134L72.9184 46.102C73.0331 45.9674 73.1477 45.8328 73.2814 45.6982C73.3578 45.6213 73.4342 45.5444 73.5298 45.4675L73.7017 45.3137C73.8354 45.1984 73.95 45.083 74.0647 44.9869C74.1793 44.8908 74.2748 44.8139 74.3894 44.7177L74.4467 44.6793C74.6187 44.5447 74.7906 44.4294 74.9625 44.2948C75.0771 44.2179 75.1727 44.141 75.2873 44.0833L75.3637 44.0256C75.5356 43.9103 75.7076 43.8142 75.8986 43.6988C76.0323 43.6219 76.1852 43.545 76.3189 43.4681C76.4908 43.372 76.6628 43.2951 76.8347 43.2182L76.9111 43.1797C77.0448 43.1221 77.1785 43.0644 77.3123 43.0067C77.5033 42.9298 77.6943 42.8529 77.9236 42.776L78.0191 42.7375C78.1337 42.6991 78.2484 42.6606 78.363 42.6222C78.5922 42.5645 78.8215 42.5068 79.0125 42.4492C79.0698 42.4299 79.108 42.4299 79.1653 42.4107C79.2608 42.3915 79.3564 42.3723 79.4519 42.353C79.7002 42.2954 79.9486 42.2761 80.1969 42.2377C80.2542 42.2377 80.2924 42.2185 80.3497 42.2185C80.4262 42.1992 80.5026 42.1992 80.579 42.18C80.9802 42.1416 81.3622 42.1223 81.7443 42.1223C82.0882 42.1223 82.4702 42.1416 82.8905 42.18C82.9669 42.18 83.0434 42.1992 83.1198 42.2185C83.1771 42.2185 83.2917 42.2377 83.2917 42.2377C83.54 42.2761 83.7884 42.2954 84.0176 42.353C84.1132 42.3723 84.2087 42.3915 84.3042 42.4107C84.3615 42.4299 84.3997 42.4299 84.457 42.4492C84.6863 42.5068 84.8964 42.5645 85.1065 42.6222C85.2403 42.6606 85.3549 42.6991 85.4886 42.7375L85.5459 42.7568C85.737 42.8144 85.9471 42.8913 86.1572 42.9875C86.3101 43.0452 86.4438 43.1221 86.5966 43.1797C86.8259 43.2759 86.9978 43.372 87.1506 43.4489C87.2843 43.5258 87.4372 43.6027 87.5709 43.6796C87.7428 43.7757 87.9339 43.8911 88.1058 44.0064C88.2395 44.1025 88.3733 44.1794 88.507 44.2756C88.6598 44.3717 88.7935 44.487 88.9464 44.6024L89.061 44.6985C89.1756 44.7754 89.2711 44.8715 89.3857 44.9484C89.5577 45.083 89.7105 45.2368 89.8633 45.3906L89.9589 45.4675C90.0353 45.5444 90.1117 45.6213 90.1881 45.6982C90.3409 45.8713 90.4938 46.0251 90.6466 46.1981C90.6848 46.2558 90.723 46.2942 90.7612 46.3327C90.8185 46.3903 90.8758 46.448 90.914 46.5249C91.0669 46.7172 91.2197 46.9286 91.4107 47.1786C91.4298 47.217 91.468 47.2555 91.4871 47.2939C91.5062 47.3324 91.5444 47.3708 91.5636 47.4093C91.7546 47.6976 91.9456 48.0245 92.1176 48.3513C92.1367 48.3897 92.1749 48.4474 92.194 48.5051C92.2131 48.5628 92.2513 48.6012 92.2704 48.6589C92.4041 48.9088 92.5187 49.1395 92.6143 49.351C92.6525 49.4279 92.6716 49.5048 92.7098 49.5817C92.7289 49.6394 92.748 49.6971 92.7671 49.7547C92.8435 49.9662 92.939 50.1777 92.9963 50.3892C93.0345 50.4853 93.0536 50.6006 93.0918 50.6968L93.1301 50.8313C93.2065 51.062 93.2638 51.2735 93.302 51.4658C93.3402 51.6196 93.3593 51.7734 93.3975 51.9464C93.4166 52.0041 93.4166 52.0618 93.4357 52.1387C93.4548 52.2156 93.4548 52.2732 93.4739 52.3501L93.5312 52.6962H95.7472C98.1161 52.677 100.237 51.1582 101.039 48.9088L101.23 48.3897H97.8104V45.6598H101.306V37.8736H95.6708C94.9258 37.8736 94.3145 37.2584 94.3145 36.5086V30.8372H88.0676C85.8707 30.8372 83.7311 29.9336 82.2028 28.3764L65.3343 11.4005C64.2645 10.3431 62.8508 9.74716 61.3608 9.74716H35.6855C34.1763 9.74716 32.7627 10.3431 31.6929 11.4005L14.8244 28.3764C13.5445 29.6644 11.8251 30.4911 10.0294 30.7218L9.68552 30.7603V36.4894C9.68552 37.2392 9.07421 37.8544 8.32917 37.8544H2.71271V47.044C2.71271 50.1777 5.23439 52.7154 8.34827 52.7154H10.5452L10.6025 52.3694C10.6216 52.2925 10.6216 52.2348 10.6407 52.1579C10.6598 52.1002 10.6598 52.0425 10.6789 51.9656L10.698 51.8887C10.7171 51.7542 10.7553 51.6196 10.7744 51.485C10.8317 51.2735 10.8891 51.062 10.9464 50.8506L10.9846 50.716C11.0228 50.6006 11.0419 50.5045 11.0801 50.3892C11.1374 50.1969 11.2138 50.0239 11.2711 49.8316V49.7932L11.3093 49.6778C11.3475 49.5817 11.3857 49.4856 11.424 49.3895C11.5386 49.1395 11.6532 48.9088 11.7678 48.6974C11.7869 48.6589 11.806 48.6012 11.8442 48.5435C11.8633 48.4859 11.9015 48.4474 11.9206 48.3897C12.0926 48.0629 12.2836 47.7553 12.4938 47.4477C12.5129 47.4093 12.5511 47.3708 12.5702 47.3324C12.5893 47.2939 12.6275 47.2555 12.6466 47.217C12.7803 47.0055 12.9522 46.7941 13.1433 46.5441C13.2006 46.4672 13.2579 46.4096 13.3152 46.3327L13.5062 46.102C13.6209 45.9674 13.7355 45.8328 13.8692 45.6982C13.9456 45.6213 14.022 45.5444 14.1176 45.4675L14.2895 45.3137C14.4232 45.1984 14.5378 45.083 14.6525 44.9677C14.7671 44.8715 14.8626 44.7946 14.9772 44.6985L15.0154 44.6601C15.1874 44.5255 15.3593 44.4101 15.5312 44.2756C15.6458 44.1987 15.7414 44.1218 15.8369 44.0641L15.9133 44.0064C16.0852 43.8911 16.2572 43.7949 16.4482 43.6796C16.5819 43.6027 16.7348 43.5258 16.8685 43.4489C17.0404 43.3528 17.2123 43.2759 17.3843 43.199L17.4607 43.1605C17.5944 43.1028 17.7281 43.0452 17.8619 42.9875C18.0529 42.9106 18.2439 42.8337 18.4732 42.7568L18.5687 42.7183C18.6833 42.6799 18.7979 42.6414 18.9126 42.603C19.1418 42.5453 19.371 42.4876 19.5621 42.4299C19.6194 42.4107 19.6576 42.4107 19.7149 42.3915C19.8104 42.3723 19.906 42.353 20.0015 42.3338C20.2498 42.2761 20.4982 42.2569 20.7465 42.2185C20.8038 42.2185 20.842 42.1992 20.8993 42.1992C20.9758 42.18 21.0522 42.18 21.1286 42.1608C21.5489 42.1992 21.95 42.18 22.313 42.18ZM97.0272 35.1628H101.173L100.982 34.6245C100.982 34.6053 100.982 34.6053 100.963 34.5861C100.963 34.5476 100.943 34.5284 100.924 34.49C100.829 34.2208 100.695 33.9901 100.561 33.7594C100.523 33.7017 100.504 33.6633 100.485 33.6248C100.447 33.5671 100.428 33.5095 100.389 33.4518C99.95 32.7789 99.4151 32.2406 98.7465 31.7984C98.651 31.7408 98.5746 31.6831 98.4982 31.6446C98.46 31.6254 98.4408 31.6062 98.4026 31.6062C98.1734 31.4716 97.925 31.3563 97.6767 31.2601C97.6385 31.2409 97.6003 31.2409 97.5812 31.2217C97.5621 31.2217 97.5621 31.2217 97.543 31.2024L97.0081 31.0102V35.1628H97.0272ZM3.62968 33.4133C3.57237 33.5095 3.51506 33.5864 3.47686 33.6633C3.45775 33.7017 3.43865 33.7209 3.43865 33.7594C3.30492 33.9901 3.1903 34.24 3.09478 34.49C3.07568 34.5284 3.07568 34.5669 3.05658 34.5861C3.05658 34.6053 3.05658 34.6053 3.05658 34.6245L2.86554 35.1628H7.01102V30.991L6.47612 31.1832C6.45702 31.1832 6.45702 31.1832 6.43791 31.2024C6.39971 31.2024 6.3806 31.2217 6.3424 31.2409C6.09405 31.337 5.8457 31.4716 5.61646 31.6062C5.55915 31.6446 5.52094 31.6639 5.48273 31.6831C5.42542 31.7215 5.36811 31.7408 5.3108 31.7792C4.62307 32.2022 4.06907 32.7597 3.62968 33.4133ZM49.8604 7.03641H54.1396V2.72997H49.8604V7.03641Z" fill="#262626"/>
<path d="M22.3133 58.9638C19.6388 58.9638 17.4609 56.7721 17.4609 54.0806C17.4609 51.3891 19.6388 49.1974 22.3133 49.1974C24.9878 49.1974 27.1656 51.3891 27.1656 54.0806C27.1656 56.7721 24.9878 58.9638 22.3133 58.9638ZM22.3133 51.9466C21.1288 51.9466 20.1737 52.9078 20.1737 54.0998C20.1737 55.2918 21.1288 56.253 22.3133 56.253C23.4977 56.253 24.4529 55.2918 24.4529 54.0998C24.4529 52.9078 23.4977 51.9466 22.3133 51.9466Z" fill="#CA0100"/>
<path d="M81.6883 58.9638C79.0137 58.9638 76.8359 56.7721 76.8359 54.0806C76.8359 51.3891 79.0137 49.1974 81.6883 49.1974C84.3628 49.1974 86.5406 51.3891 86.5406 54.0806C86.5406 56.7721 84.3628 58.9638 81.6883 58.9638ZM81.6883 51.9466C80.5038 51.9466 79.5486 52.9078 79.5486 54.0998C79.5486 55.2918 80.5038 56.253 81.6883 56.253C82.8727 56.253 83.8279 55.2918 83.8279 54.0998C83.8279 52.9078 82.8727 51.9466 81.6883 51.9466Z" fill="#CA0100"/>
<path d="M41.1268 45.6979H38.4141V48.4279H41.1268V45.6979Z" fill="#CA0100"/>
<path d="M44.6268 42.1801H41.9141V44.91H44.6268V42.1801Z" fill="#CA0100"/>
<path d="M48.119 45.6979H45.4062V48.4279H48.119V45.6979Z" fill="#CA0100"/>
<path d="M51.619 42.1801H48.9062V44.91H51.619V42.1801Z" fill="#CA0100"/>
<path d="M55.1111 45.698H52.3984V48.428H55.1111V45.698Z" fill="#CA0100"/>
<path d="M58.6033 42.1801H55.8906V44.91H58.6033V42.1801Z" fill="#CA0100"/>
<path d="M62.0877 45.6979H59.375V48.4279H62.0877V45.6979Z" fill="#CA0100"/>
<path d="M65.5799 42.1801H62.8672V44.91H65.5799V42.1801Z" fill="#CA0100"/>
<path d="M41.1268 38.6617H38.4141V41.3917H41.1268V38.6617Z" fill="#CA0100"/>
<path d="M48.119 38.6617H45.4062V41.3917H48.119V38.6617Z" fill="#CA0100"/>
<path d="M55.1111 38.6617H52.3984V41.3917H55.1111V38.6617Z" fill="#CA0100"/>
<path d="M62.0877 38.6617H59.375V41.3917H62.0877V38.6617Z" fill="#CA0100"/>
</svg>
