<svg width="64" height="77" viewBox="0 0 64 77" fill="none" xmlns="http://www.w3.org/2000/svg">
<path d="M19.1365 55.2239H16.7018C16.0061 55.2239 15.4844 55.7465 15.4844 56.4433C15.4844 57.1402 16.0061 57.6628 16.7018 57.6628H19.1365C19.8322 57.6628 20.3539 57.1402 20.3539 56.4433C20.3539 55.7465 20.0061 55.2239 19.1365 55.2239Z" fill="#CA0100"/>
<path d="M55.1328 55.2239H24.3502C23.6546 55.2239 23.1328 55.7465 23.1328 56.4433C23.1328 57.1402 23.6546 57.6628 24.3502 57.6628H55.1328C55.8285 57.6628 56.3502 57.1402 56.3502 56.4433C56.3502 55.7465 55.8285 55.2239 55.1328 55.2239Z" fill="#CA0100"/>
<path d="M19.1365 47.5587H16.7018C16.0061 47.5587 15.4844 48.0813 15.4844 48.7782C15.4844 49.475 16.0061 49.9976 16.7018 49.9976H19.1365C19.8322 49.9976 20.3539 49.475 20.3539 48.7782C20.3539 48.0813 20.0061 47.5587 19.1365 47.5587Z" fill="#CA0100"/>
<path d="M55.1328 47.5587H24.3502C23.6546 47.5587 23.1328 48.0813 23.1328 48.7782C23.1328 49.475 23.6546 49.9976 24.3502 49.9976H55.1328C55.8285 49.9976 56.3502 49.475 56.3502 48.7782C56.3502 48.0813 55.8285 47.5587 55.1328 47.5587Z" fill="#CA0100"/>
<path d="M19.1365 39.7194H16.7018C16.0061 39.7194 15.4844 40.242 15.4844 40.9388C15.4844 41.6357 16.0061 42.1583 16.7018 42.1583H19.1365C19.8322 42.1583 20.3539 41.6357 20.3539 40.9388C20.3539 40.242 20.0061 39.7194 19.1365 39.7194Z" fill="#CA0100"/>
<path d="M55.1328 39.7194H24.3502C23.6546 39.7194 23.1328 40.242 23.1328 40.9388C23.1328 41.6357 23.6546 42.1583 24.3502 42.1583H55.1328C55.8285 42.1583 56.3502 41.6357 56.3502 40.9388C56.3502 40.242 55.8285 39.7194 55.1328 39.7194Z" fill="#CA0100"/>
<path d="M19.1365 32.0542H16.7018C16.0061 32.0542 15.4844 32.5768 15.4844 33.2737C15.4844 33.9705 16.0061 34.4931 16.7018 34.4931H19.1365C19.8322 34.4931 20.3539 33.9705 20.3539 33.2737C20.3539 32.5768 20.0061 32.0542 19.1365 32.0542Z" fill="#CA0100"/>
<path d="M55.1328 32.0542H24.3502C23.6546 32.0542 23.1328 32.5768 23.1328 33.2737C23.1328 33.9705 23.6546 34.4931 24.3502 34.4931H55.1328C55.8285 34.4931 56.3502 33.9705 56.3502 33.2737C56.3502 32.5768 55.8285 32.0542 55.1328 32.0542Z" fill="#CA0100"/>
<path d="M19.1365 24.3892H16.7018C16.0061 24.3892 15.4844 24.9118 15.4844 25.6086C15.4844 26.3054 16.0061 26.8281 16.7018 26.8281H19.1365C19.8322 26.8281 20.3539 26.3054 20.3539 25.6086C20.3539 24.9118 20.0061 24.3892 19.1365 24.3892Z" fill="#CA0100"/>
<path d="M55.1328 24.3892H24.3502C23.6546 24.3892 23.1328 24.9118 23.1328 25.6086C23.1328 26.3054 23.6546 26.8281 24.3502 26.8281H55.1328C55.8285 26.8281 56.3502 26.3054 56.3502 25.6086C56.3502 24.9118 55.8285 24.3892 55.1328 24.3892Z" fill="#CA0100"/>
<path d="M64 19.1628C64 18.9886 64 18.9886 64 18.8144C64 18.8144 64 18.8144 64 18.6402C64 18.466 63.8261 18.2918 63.8261 18.2918L45.7391 0.348353C45.5652 0.174145 45.5652 0.174145 45.3913 0.174145C45.3913 0.174145 45.3913 0.174145 45.2174 0.174145C45.0435 0.174145 45.0435 0.174145 44.8696 0.174145H9.04348C8.17391 -6.3166e-05 7.65217 0.522561 7.65217 1.21939V5.05197H1.21739C0.521739 5.05197 0 5.74881 0 6.44564V75.7805C0 76.4773 0.521739 76.9999 1.21739 76.9999H54.9565C55.6522 76.9999 56.1739 76.4773 56.1739 75.7805V69.3348H62.6087C63.3044 69.3348 63.8261 68.8121 63.8261 68.1153L64 19.1628ZM46.087 4.35514L59.6522 17.9434H46.087V4.35514ZM53.7391 74.3868H2.6087V7.6651H7.65217V67.9411C7.65217 68.6379 8.17391 69.1606 8.86957 69.1606H53.7391V74.3868ZM61.5652 66.7216H10.2609V2.61306H43.4783V19.1628C43.4783 19.8597 44 20.3823 44.6957 20.3823H61.3913V66.7216H61.5652Z" fill="#262626"/>
<path d="M24.3482 11.4977H16.696C16.0003 11.4977 15.3047 12.1945 15.3047 12.8913V20.5565C15.3047 21.2533 15.8264 21.776 16.5221 21.776H24.3482C25.0438 21.776 25.5656 21.2533 25.5656 20.5565V12.8913C25.5656 12.1945 25.0438 11.4977 24.3482 11.4977ZM23.1308 19.1628H18.0873V14.1108H23.1308V19.1628Z" fill="#262626"/>
</svg>
