<svg width="105" height="38" viewBox="0 0 105 38" fill="none" xmlns="http://www.w3.org/2000/svg">
<path d="M30.4215 4.9498H5.41552L7.21694 0H32.2229L30.4215 4.9498ZM29.5208 7.4247H4.50355L2.70213 12.3745H27.7081L29.5208 7.4247ZM26.8187 14.8269H1.80142L0 19.7767H24.9835L26.8187 14.8269Z" fill="#009FDF"/>
<path d="M90.0038 32.1616H94.5074C95.1475 32.238 95.7966 32.1558 96.3974 31.9223C96.9982 31.6889 97.5323 31.3113 97.9526 30.8229C98.5704 30.0151 98.8816 29.0146 98.8308 27.9993C98.8731 27.3532 98.7543 26.7067 98.4851 26.1177C98.2159 25.5287 97.8047 25.0156 97.2883 24.6244C96.4523 24.0779 95.4582 23.8246 94.4624 23.9044H90.0038V32.1616ZM84.0929 37.1452V7.42385H103.447L101.747 12.4074H90.0038V18.9884H94.7889C98.6507 18.9884 100.655 19.9108 102.04 21.0921C103.03 21.9681 103.808 23.0567 104.317 24.2764C104.826 25.496 105.052 26.8149 104.978 28.1343C105.054 29.555 104.774 30.9722 104.162 32.257C103.551 33.5419 102.628 34.6537 101.477 35.4915C99.6189 36.7739 97.6711 37.1339 93.708 37.1339L84.0929 37.1452ZM66.9569 37.1452V12.3962H58.3551V7.42385H82.2352L80.5351 12.4074H72.9241V37.1564L66.9569 37.1452ZM43.1219 19.3259H46.4995C47.1903 19.373 47.8843 19.32 48.5599 19.1684C49.2625 18.9441 49.868 18.488 50.2771 17.8748C50.6862 17.2617 50.8747 16.5278 50.8117 15.7935C50.9054 15.0639 50.7279 14.3253 50.3128 13.7178C49.8978 13.1102 49.2741 12.676 48.5599 12.4974C47.8223 12.3263 47.0645 12.2582 46.3081 12.2949H43.1219V19.3259ZM43.1219 24.4669V32.2628H47.2426C48.3783 32.3926 49.5201 32.0781 50.4289 31.3854C50.8477 30.9977 51.1758 30.5224 51.3899 29.9935C51.6039 29.4647 51.6987 28.8951 51.6673 28.3255C51.6853 27.4154 51.4089 26.5238 50.8792 25.7831C50.001 24.6582 48.9202 24.4444 47.0737 24.4444L43.1219 24.4669ZM52.6469 21.3283V21.4295C53.6507 21.8156 54.5888 22.3545 55.4278 23.027C56.2759 23.7303 56.9463 24.6233 57.3844 25.6338C57.8226 26.6443 58.0163 27.7437 57.9498 28.843C57.9498 32.9041 55.7881 35.8402 52.2415 36.7177C50.8279 37.063 49.3718 37.2031 47.9181 37.1339H37.2109V7.42385H46.736C48.2488 7.36859 49.7625 7.50849 51.2395 7.84009C54.6847 8.76255 56.9478 11.1362 56.9478 14.8823C56.9759 15.7754 56.8217 16.6649 56.4946 17.4966C56.1674 18.3282 55.6742 19.0846 55.045 19.7196C54.3768 20.3975 53.5809 20.9366 52.7032 21.3058L52.6469 21.3283Z" fill="#0A2973"/>
</svg>
