<svg width="26" height="9" viewBox="0 0 26 9" fill="none" xmlns="http://www.w3.org/2000/svg">
<path fill-rule="evenodd" clip-rule="evenodd" d="M1.76649 0L1.32459 1.16812H7.44831L7.89021 0H1.76649ZM1.1035 1.75192L0.661606 2.91977H6.78532L7.22722 1.75192H1.1035ZM0.441898 3.50383L0 4.67169H6.12372L6.56534 3.50383H0.441898Z" fill="#009FDF"/>
<mask id="mask0_1565_26943" style="mask-type:alpha" maskUnits="userSpaceOnUse" x="9" y="1" width="17" height="8">
<path d="M9.1875 8.92989H25.9505V1.77441H9.1875V8.92989Z" fill="white"/>
</mask>
<g mask="url(#mask0_1565_26943)">
<path fill-rule="evenodd" clip-rule="evenodd" d="M13.0186 5.11687V5.14152C13.2985 5.24065 13.5658 5.41399 13.7059 5.5253C14.1386 5.87198 14.3296 6.32997 14.3296 6.9242C14.3296 7.90248 13.795 8.60802 12.9167 8.83092C12.6494 8.90514 12.3695 8.93005 11.8474 8.93005H9.1875V1.77441H11.5422C12.0259 1.77441 12.3567 1.79906 12.6494 1.87327C13.5023 2.09617 14.0623 2.66575 14.0623 3.56928C14.0623 4.05219 13.8841 4.46089 13.5914 4.73309C13.4641 4.85686 13.2859 5.00556 13.0186 5.11687ZM10.6639 5.87198V7.75379H11.6823C11.9875 7.75379 12.2676 7.72914 12.4714 7.54334C12.675 7.35755 12.7641 7.12245 12.7641 6.81288C12.7641 6.57779 12.7003 6.35489 12.5731 6.19401C12.3567 5.934 12.0894 5.87198 11.6313 5.87198H10.6639ZM10.6511 4.63396H11.4784C11.7329 4.63396 11.8602 4.63396 11.9875 4.59686C12.3314 4.49773 12.5477 4.20089 12.5477 3.79218C12.5477 3.30954 12.3185 3.09883 11.9875 2.99997C11.8474 2.96287 11.7076 2.95041 11.4275 2.95041H10.6511V4.63396ZM16.5442 8.93005V2.97506H14.4187V1.77441H20.3247L19.9047 2.97506H18.0207V8.93005H16.5442ZM20.7827 8.93005V1.77441H25.5687L25.1488 2.97506H22.2466V4.55975H23.4304C24.385 4.55975 24.8815 4.78265 25.2251 5.06731C25.4924 5.29021 25.9505 5.78531 25.9505 6.76359C25.9505 7.72914 25.4796 8.26134 25.085 8.53381C24.6269 8.84311 24.1432 8.93005 23.1631 8.93005H20.7827ZM22.2466 7.72914H23.3541C23.774 7.72914 24.0285 7.63001 24.2067 7.40711C24.2958 7.29579 24.4231 7.09754 24.4231 6.72621C24.4231 6.35489 24.2958 6.09488 24.0413 5.90908C23.8887 5.79777 23.6849 5.73602 23.3413 5.73602H22.2466V7.72914Z" fill="white"/>
</g>
</svg>
