<svg width="15" height="15" viewBox="0 0 15 15" fill="none" xmlns="http://www.w3.org/2000/svg">
<path d="M0.9375 7.7002V13.3252C0.9375 13.8427 1.35844 14.2627 1.875 14.2627H6.5625V7.7002H0.9375Z" fill="white"/>
<path d="M14.0625 3.95046H11.0963C11.3091 3.80515 11.4919 3.66077 11.6194 3.5314C12.3759 2.77108 12.3759 1.53358 11.6194 0.773272C10.8844 0.0326467 9.60375 0.0345217 8.86969 0.773272C8.46281 1.18108 7.38469 2.8414 7.53375 3.95046H7.46625C7.61438 2.8414 6.53625 1.18108 6.13031 0.773272C5.39531 0.0345217 4.11469 0.0345217 3.38063 0.773272C2.625 1.53358 2.625 2.77108 3.37969 3.5314C3.50813 3.66077 3.69094 3.80515 3.90375 3.95046H0.9375C0.420938 3.95046 0 4.3714 0 4.88796V6.29421C0 6.55296 0.21 6.76296 0.46875 6.76296H6.5625V4.88796H8.4375V6.76296H14.5312C14.79 6.76296 15 6.55296 15 6.29421V4.88796C15 4.3714 14.58 3.95046 14.0625 3.95046ZM6.50719 3.91952C6.50719 3.91952 6.46781 3.95046 6.33375 3.95046C5.68594 3.95046 4.44938 3.27733 4.04531 2.87046C3.6525 2.47483 3.6525 1.82983 4.04531 1.43421C4.23563 1.24296 4.48781 1.13796 4.75594 1.13796C5.02313 1.13796 5.27531 1.24296 5.46562 1.43421C6.0975 2.06983 6.72563 3.69358 6.50719 3.91952ZM8.66531 3.95046C8.53219 3.95046 8.49281 3.92046 8.49281 3.91952C8.27437 3.69358 8.9025 2.06983 9.53438 1.43421C9.91219 1.05265 10.5731 1.05077 10.9547 1.43421C11.3484 1.82983 11.3484 2.47483 10.9547 2.87046C10.5506 3.27733 9.31406 3.95046 8.66531 3.95046Z" fill="white"/>
<path d="M8.4375 7.7002V14.2627H13.125C13.6425 14.2627 14.0625 13.8427 14.0625 13.3252V7.7002H8.4375Z" fill="white"/>
</svg>
