<svg width="17" height="19" viewBox="0 0 17 19" fill="none" xmlns="http://www.w3.org/2000/svg">
<path d="M16.248 4.465L16.2634 4.44917L12.4255 0.527794L11.3334 1.64667L13.5073 3.87388C12.5389 4.25388 11.8485 5.20917 11.8485 6.33333C11.8485 7.79 13.0024 8.97223 14.4243 8.97223C14.79 8.97223 15.1403 8.89304 15.4546 8.75054V16.3611C15.4546 16.9417 14.9909 17.4167 14.4243 17.4167C13.8576 17.4167 13.394 16.9417 13.394 16.3612V11.6112C13.394 10.4447 12.4719 9.5 11.3334 9.5H10.3031V2.11112C10.303 0.944706 9.38091 0 8.24247 0H2.06063C0.922108 0 0 0.944706 0 2.11112V19H10.303V11.0833H11.8485V16.3612C11.8485 17.8178 13.0024 19 14.4243 19C15.846 19 17 17.8178 17 16.3612V6.33333C17.0001 5.605 16.7116 4.94529 16.248 4.465ZM8.24247 7.38888H2.06063V2.11112H8.24247V7.38888ZM14.4243 7.38888C13.8576 7.38888 13.394 6.91388 13.394 6.33333C13.394 5.75279 13.8576 5.27779 14.4243 5.27779C14.9909 5.27779 15.4546 5.75279 15.4546 6.33333C15.4546 6.91388 14.9909 7.38888 14.4243 7.38888Z" fill="#262626"/>
</svg>
