<svg width="33" height="39" viewBox="0 0 33 39" fill="none" xmlns="http://www.w3.org/2000/svg">
<path d="M32.7795 32.7454C32.7795 32.7454 28.502 25.3938 27.7347 24.0753C28.6077 23.809 29.5376 23.5738 29.924 22.9067C30.568 21.795 29.4217 19.9714 29.7227 18.7798C30.0328 17.5535 31.8631 16.4923 31.8631 15.2457C31.8631 14.0313 29.9708 12.6125 29.6605 11.3933C29.3575 10.2019 30.5003 8.37633 29.8542 7.26601C29.2082 6.15558 27.0564 6.24681 26.1706 5.39446C25.2592 4.51733 25.262 2.37125 24.1628 1.78343C23.059 1.19343 21.2651 2.38583 20.0396 2.10338C18.8281 1.82416 17.7457 0 16.4802 0C15.1959 0 13.1532 2.06922 12.8329 2.14368C11.608 2.42842 9.81185 1.23895 8.70924 1.83145C7.61099 2.42124 7.61776 4.56752 6.70803 5.44612C5.8237 6.30003 3.67179 6.21275 3.02774 7.32443C2.38379 8.4359 3.53005 10.2591 3.22916 11.4513C2.92745 12.6465 1.03341 13.8575 1.03341 15.2398C1.03341 16.4865 2.86829 17.5443 3.18021 18.77C3.48339 19.9614 2.34057 21.7868 2.9866 22.8975C3.33831 23.5021 4.13629 23.7503 4.93324 23.9889C5.02624 24.0167 5.20215 24.1207 5.083 24.2943C4.53779 25.2354 0.1495 32.809 0.1495 32.809C-0.199604 33.4114 0.0838869 33.9277 0.779285 33.957L4.18316 34.099C4.87856 34.1282 5.7509 34.6336 6.12209 35.2223L7.93843 38.1045C8.30962 38.6933 8.89858 38.6822 9.24758 38.0799C9.24758 38.0799 14.3297 29.3059 14.3318 29.3034C14.4337 29.1842 14.5362 29.2087 14.5853 29.2503C15.1413 29.7238 15.9165 30.1961 16.5635 30.1961C17.1979 30.1961 17.7854 29.7515 18.3666 29.2557C18.4139 29.2153 18.529 29.1328 18.6131 29.3042C18.6145 29.3069 23.691 38.033 23.691 38.033C24.0409 38.6345 24.63 38.6447 25 38.0552L26.8112 35.1696C27.1814 34.5804 28.0528 34.0731 28.7482 34.0428L32.1517 33.8945C32.8468 33.864 33.1294 33.3469 32.7795 32.7454ZM22.1055 24.853C18.342 27.0425 13.8246 26.8079 10.3741 24.6315C5.31827 21.393 3.65471 14.6938 6.69407 9.44791C9.76811 4.14156 16.5256 2.26918 21.8797 5.18523C21.9078 5.20054 21.9356 5.21637 21.9636 5.23199C22.0032 5.25397 22.0428 5.27625 22.0823 5.29875C23.7341 6.25108 25.1664 7.63323 26.1921 9.39615C29.3267 14.7844 27.4936 21.7183 22.1055 24.853Z" fill="white"/>
<path d="M21.2451 6.8839C21.2295 6.87484 21.2136 6.8664 21.198 6.85744C18.3379 5.20211 14.6925 5.08109 11.6373 6.85859C7.10354 9.49625 5.5608 15.3305 8.19845 19.8642C9.00331 21.2477 10.1062 22.3521 11.3787 23.1447C11.4869 23.2132 11.5964 23.2806 11.7082 23.3454C16.2469 25.9748 22.0781 24.4215 24.7074 19.8831C27.3366 15.3444 25.7838 9.51333 21.2451 6.8839ZM22.3805 14.3035L20.7913 15.8525C20.2991 16.3322 19.9915 17.2791 20.1078 17.9566L20.4829 20.1438C20.5992 20.8213 20.1965 21.1139 19.5881 20.794L17.6238 19.7613C17.0153 19.4415 16.0198 19.4415 15.4113 19.7613L13.4471 20.794C12.8387 21.1139 12.4359 20.8213 12.5522 20.1438L12.9273 17.9566C13.0435 17.2791 12.7359 16.3322 12.2437 15.8525L10.6546 14.3035C10.1623 13.8238 10.3162 13.3504 10.9964 13.2514L13.1925 12.9323C13.8727 12.8335 14.6781 12.2483 14.9824 11.6319L15.9645 9.64195C16.2687 9.0256 16.7665 9.0256 17.0706 9.64195L18.0529 11.6319C18.3571 12.2483 19.1625 12.8335 19.8427 12.9323L22.0388 13.2514C22.7189 13.3504 22.8727 13.8238 22.3805 14.3035Z" fill="white"/>
</svg>
