<svg width="68" height="83" viewBox="0 0 68 83" fill="none" xmlns="http://www.w3.org/2000/svg">
<path d="M33.7354 9.22446C33.6844 9.22446 33.6505 9.22446 33.5995 9.22446C32.886 9.15651 32.3594 8.56193 32.3594 7.84844C32.3594 7.08398 32.9709 6.47241 33.7354 6.47241C34.4999 6.47241 35.1114 7.08398 35.1114 7.84844C35.1114 8.22217 34.9755 8.56193 34.7037 8.81675C34.4489 9.08856 34.1091 9.22446 33.7354 9.22446Z" fill="#262626"/>
<path d="M33.738 82.3575C33.6021 82.3575 33.4662 82.3405 33.3473 82.3065C23.5793 79.3676 15.2212 73.4898 9.17349 65.3186C3.17674 57.1984 0 47.5832 0 37.4924V11.0761C0 10.3117 0.611566 9.70011 1.37602 9.70011C5.96277 9.70011 9.70011 5.96277 9.70011 1.37602C9.70011 0.611566 10.3117 0 11.0761 0H56.383C57.1474 0 57.759 0.611566 57.759 1.37602C57.759 5.96277 61.4963 9.70011 66.0831 9.70011C66.8475 9.70011 67.4591 10.3117 67.4591 11.0761V37.4754C67.4591 47.6851 64.2314 57.3853 58.1327 65.5225C52.085 73.5917 43.7779 79.3846 34.1288 82.2896C34.0098 82.3405 33.8739 82.3575 33.738 82.3575ZM12.5881 2.75205C12.4691 2.75205 12.3672 2.83699 12.3502 2.9559C11.6537 7.79746 7.79746 11.6537 2.9559 12.3502C2.83699 12.3672 2.75205 12.4691 2.75205 12.5881V37.4924C2.75205 56.8756 15.1702 73.7616 33.6531 79.5205C33.6701 79.5205 33.7041 79.5375 33.7211 79.5375C33.738 79.5375 33.772 79.5375 33.789 79.5205C52.2889 73.7616 64.724 56.8586 64.724 37.4924V12.5881C64.724 12.4691 64.6391 12.3672 64.5202 12.3502C59.6786 11.6537 55.8224 7.79746 55.1259 2.9559C55.1089 2.83699 55.0069 2.75205 54.888 2.75205H12.5881Z" fill="#262626"/>
<path d="M33.7344 75.5453C33.5815 75.5453 33.4286 75.5113 33.2757 75.4603C25.3423 72.6573 18.6151 67.5779 13.8245 60.7997C9.01694 54.0046 6.46875 45.9353 6.46875 37.4923V16.2064C6.46875 15.6628 6.79152 15.1701 7.30116 14.9493C10.7327 13.4544 13.4508 10.7363 14.9457 7.30472C15.1666 6.81207 15.6592 6.47231 16.2028 6.47231H27.262C28.0264 6.47231 28.638 7.08388 28.638 7.84833C28.638 8.61279 28.0264 9.22436 27.262 9.22436H17.2221C17.1372 9.22436 17.0522 9.27532 17.0013 9.36026C15.3025 12.6729 12.6524 15.323 9.33971 17.0218C9.25477 17.0558 9.20381 17.1407 9.20381 17.2427V37.5093C9.20381 53.393 18.785 67.2042 33.6325 72.6913C33.6664 72.7083 33.6834 72.7083 33.7174 72.7083C33.7514 72.7083 33.7684 72.7083 33.8023 72.6913C48.6328 67.1872 58.231 53.376 58.231 37.5093V17.2257C58.231 17.1407 58.18 17.0558 58.0951 17.0048C54.7824 15.306 52.1323 12.6559 50.4335 9.34327C50.3996 9.25833 50.3146 9.20737 50.2127 9.20737H40.1728C39.4084 9.20737 38.7968 8.5958 38.7968 7.83134C38.7968 7.06689 39.4084 6.45532 40.1728 6.45532H51.232C51.7756 6.45532 52.2682 6.77809 52.4891 7.28773C53.984 10.7193 56.7021 13.4374 60.1336 14.9323C60.6263 15.1531 60.966 15.6458 60.966 16.1894V37.4753C60.966 45.9353 58.4179 53.9876 53.6103 60.7997C48.8197 67.5779 42.0925 72.6573 34.1591 75.4603C34.0402 75.5283 33.8873 75.5453 33.7344 75.5453Z" fill="#CA0100"/>
<path d="M33.7427 52.2531C25.8433 52.2531 19.4219 45.8317 19.4219 37.9323C19.4219 30.0329 25.8433 23.6115 33.7427 23.6115C41.6421 23.6115 48.0635 30.0329 48.0635 37.9323C48.0635 45.8317 41.6421 52.2531 33.7427 52.2531ZM33.7427 26.3805C27.3722 26.3805 22.1739 31.5618 22.1739 37.9493C22.1739 44.3197 27.3552 49.5181 33.7427 49.5181C40.1132 49.5181 45.3115 44.3367 45.3115 37.9493C45.3115 31.5618 40.1132 26.3805 33.7427 26.3805Z" fill="#CA0100"/>
<path d="M32.1272 44.1687C31.7534 44.1687 31.4137 44.0328 31.1589 43.761L27.9311 40.5333C27.6763 40.2785 27.5234 39.9218 27.5234 39.565C27.5234 39.1913 27.6593 38.8515 27.9311 38.5967C28.186 38.3419 28.5427 38.189 28.8995 38.189C29.2562 38.189 29.613 38.3249 29.8678 38.5967L31.9573 40.6862C32.0083 40.7372 32.0592 40.7542 32.1272 40.7542C32.1951 40.7542 32.2461 40.7372 32.297 40.6862L39.2451 33.7382C39.4999 33.4833 39.8567 33.3304 40.2134 33.3304C40.5702 33.3304 40.9269 33.4663 41.1817 33.7382C41.7254 34.2818 41.7254 35.1482 41.1817 35.6918L33.0955 43.778C32.8407 44.0328 32.4839 44.1687 32.1272 44.1687Z" fill="#CA0100"/>
</svg>
