<svg width="98" height="79" viewBox="0 0 98 79" fill="none" xmlns="http://www.w3.org/2000/svg">
<g clip-path="url(#clip0_1565_30226)">
<path d="M69.4965 29.3101C70.8559 29.2687 71.9643 28.1526 71.9643 26.7884C71.9643 25.4035 70.8141 24.2666 69.4129 24.2666H68.1999C67.8862 24.2666 67.5934 24.3287 67.3215 24.432L66.5477 21.993C66.0667 20.4841 64.6655 19.4713 63.0761 19.4713H48.0394C47.0565 19.4713 46.1363 19.8433 45.4462 20.5254L45.4043 20.5668L45.3834 20.6081C44.8606 21.3315 44.526 22.0756 44.526 22.117L44.5051 22.1377L43.8149 24.2873H40.9498L40.8871 24.308C39.5277 24.5974 39.1722 25.7342 39.1722 26.3543C39.1512 26.5197 39.1303 26.6643 39.1303 26.8297C39.1303 28.1939 40.2387 29.3101 41.5981 29.3514C40.908 30.4676 40.3015 31.6871 39.9878 33.072H32.3335C30.7232 33.072 29.3429 34.0848 28.8619 35.5937L28.0881 38.0327C27.8162 37.9294 27.5025 37.8674 27.2097 37.8674H25.9967C24.5955 37.8674 23.4453 39.0042 23.4453 40.3891C23.4453 41.7533 24.5328 42.8488 25.9131 42.9108L25.7667 43.1382C24.6374 44.8744 24.0518 46.8587 24.0518 48.9257V56.0775C24.0518 57.3797 25.1184 58.4338 26.4359 58.4338H27.8371C29.1547 58.4338 30.2212 57.3797 30.2212 56.0775V54.1345H49.5034V56.0775C49.5034 57.3797 50.5699 58.4338 51.8875 58.4338H53.2887C54.6062 58.4338 55.6728 57.3797 55.6728 56.0775L55.6937 48.905C55.6937 48.1609 55.1081 47.5822 54.3134 47.5822C53.5396 47.5822 52.975 48.1403 52.975 48.905V48.967C52.4103 48.0162 51.3646 47.3755 50.1935 47.3755C47.5793 47.3755 45.1952 48.905 44.1495 51.2821L44.0868 51.4268H35.6587L35.596 51.2821C34.5503 48.905 32.1662 47.3755 29.552 47.3755C28.3809 47.3755 27.3352 48.0162 26.7705 48.967V48.905C26.7705 47.3755 27.2097 45.8666 28.0463 44.5644L29.1337 42.8901H50.6118C50.7163 43.0348 50.8209 43.2002 50.9045 43.3449C51.3856 44.0683 51.8875 44.8124 52.243 45.5772C52.4731 46.0526 52.9122 46.342 53.4351 46.342C53.9161 46.342 54.3971 46.0939 54.648 45.7012C54.8781 45.3292 54.9199 44.8744 54.7108 44.461C54.4598 43.903 54.1461 43.3862 53.8324 42.8901C54.5644 42.8695 55.2336 42.5181 55.7146 41.9393C56.0492 41.5259 56.2375 41.0505 56.2793 40.5338H65.2093V42.4767C65.2093 43.7789 66.2759 44.8331 67.5934 44.8331H68.9946C70.3121 44.8331 71.3787 43.7789 71.3787 42.4767L71.3996 35.3043C71.3996 33.258 70.8141 31.253 69.6847 29.5168L69.4965 29.3101ZM47.1192 22.7991C47.1401 22.7371 47.1611 22.6751 47.2029 22.5924C47.3702 22.3237 47.663 22.1583 47.9976 22.1583H63.0343C63.4317 22.1583 63.7872 22.4064 63.9127 22.7991L65.1256 26.623H45.8853L47.1192 22.7991ZM68.6182 40.5338V42.146H67.8862V40.5338H68.6182ZM31.4133 36.3585C31.5388 35.9657 31.8943 35.7177 32.2917 35.7177H47.3284C47.7257 35.7177 48.0812 35.9657 48.2067 36.3585L49.4197 40.1824H30.1794L31.4133 36.3585ZM47.3493 33.0306H42.7902C43.1875 31.7905 43.8986 30.7156 44.6515 29.5581C44.7142 29.4754 44.756 29.3928 44.8188 29.3101H66.2968L67.3843 30.9843C68.2208 32.2865 68.66 33.7747 68.66 35.325V35.387C68.0953 34.4362 67.0497 33.7954 65.8785 33.7954C63.2643 33.7954 60.8802 35.325 59.8346 37.702L59.7718 37.8467H51.5738L50.8209 35.5524C50.3399 34.0435 48.9387 33.0306 47.3493 33.0306ZM65.8576 36.4825C66.1295 36.4825 66.3595 36.6892 66.3595 36.9579L66.3804 37.826H62.9088C63.6199 36.9992 64.7074 36.4825 65.8576 36.4825ZM50.1517 50.0419C50.4235 50.0419 50.6536 50.2486 50.6536 50.5173L50.6745 51.3854H47.2029C47.9139 50.5586 49.0014 50.0419 50.1517 50.0419ZM52.1803 55.7054V54.0932H52.9122V55.7054H52.1803ZM26.7078 55.7054V54.0932H27.4398V55.7054H26.7078ZM29.4893 50.0419C30.6395 50.0419 31.727 50.5586 32.4381 51.4061H28.9664L28.9874 50.538C29.0083 50.2692 29.2174 50.0419 29.4893 50.0419Z" fill="#CA0100"/>
<path d="M87.4586 43.1999C87.0613 43.1999 86.6848 43.0552 86.4129 42.7659L77.3575 33.8158C76.8137 33.2578 76.8137 32.3483 77.3784 31.7695C77.6502 31.5008 78.0267 31.3355 78.424 31.3355C78.8005 31.3355 79.1769 31.4802 79.4488 31.7489L85.9947 38.2185L85.7855 36.0689C84.3425 20.4632 72.9866 7.52385 57.5107 3.90663C54.7083 3.2452 51.8432 2.91448 48.978 2.91448C36.1372 2.91448 24.4048 9.34279 17.608 20.1324C17.3361 20.5665 16.8551 20.8352 16.3532 20.8352H16.3114C15.7885 20.8145 15.3075 20.5252 15.0566 20.0498C14.8056 19.595 14.8265 19.0163 15.1193 18.5822C18.7373 12.8567 23.7774 8.12327 29.7586 4.87811C35.6353 1.67429 42.3067 -0.0206299 48.9989 -0.0206299C52.2196 -0.0206299 55.4193 0.372096 58.5563 1.13688C66.7753 3.14185 74.0322 7.58586 79.4906 13.9728C84.949 20.3598 88.1697 28.173 88.7971 36.5236L88.9225 38.2185L95.4893 31.7282C95.7612 31.4595 96.1377 31.2941 96.535 31.2941C96.9324 31.2941 97.3088 31.4388 97.5807 31.7282C97.8526 31.9969 98.0199 32.369 98.0199 32.7617C98.0199 33.1544 97.8735 33.5265 97.5807 33.7952L88.5252 42.7452C88.2324 43.0346 87.856 43.1999 87.4586 43.1999Z" fill="#262626"/>
<path d="M48.9791 79.0003C45.7585 79.0003 42.5588 78.6076 39.4217 77.8428C31.2028 75.8378 23.9459 71.3938 18.4875 65.0068C13.0291 58.5992 9.80843 50.8066 9.18103 42.456L9.05555 40.7611L2.48876 47.2514C2.21688 47.4995 1.86136 47.6442 1.464 47.6442C1.06665 47.6442 0.690208 47.4995 0.418334 47.2101C-0.146327 46.652 -0.146326 45.7425 0.397421 45.1638L9.43199 36.2344C9.70387 35.9657 10.0803 35.8004 10.4777 35.8004C10.875 35.8004 11.2515 35.945 11.5233 36.2344L20.5788 45.1845C21.1226 45.7425 21.1226 46.652 20.5579 47.2308C20.286 47.4995 19.9096 47.6648 19.5122 47.6648C19.1358 47.6648 18.7593 47.5201 18.4875 47.2514L11.9416 40.7818L12.1507 42.9314C13.6147 58.5578 24.9915 71.4971 40.4465 75.1144C43.2489 75.7758 46.114 76.1065 48.9582 76.1065C61.799 76.1065 73.5314 69.6782 80.3283 58.8885C80.6002 58.4545 81.0602 58.2064 81.5831 58.2064C81.855 58.2064 82.1268 58.2891 82.3569 58.4338C83.047 58.8679 83.2561 59.7567 82.817 60.4388C79.2199 66.1643 74.1588 70.8977 68.1985 74.1429C62.3428 77.3054 55.6923 79.0003 48.9791 79.0003Z" fill="#262626"/>
</g>
<defs>
<clipPath id="clip0_1565_30226">
<rect width="98" height="79" fill="white"/>
</clipPath>
</defs>
</svg>
