<svg width="84" height="74" viewBox="0 0 84 74" fill="none" xmlns="http://www.w3.org/2000/svg">
<path d="M46.3025 36.8322C46.7887 36.3471 46.7887 35.5821 46.3025 35.0969C45.8163 34.6118 45.0496 34.6118 44.5634 35.0969C43.1423 36.515 40.8609 36.515 39.4397 35.0969C38.9535 34.6118 38.1868 34.6118 37.7006 35.0969C37.2144 35.5821 37.2144 36.3471 37.7006 36.8322C38.8787 38.0077 40.4495 38.6047 42.0016 38.6047C43.5537 38.6047 45.1244 38.0077 46.3025 36.8322Z" fill="#CA0100"/>
<path d="M81.943 66.2932H78.764V59.5014C78.764 57.9154 77.4737 56.628 75.8842 56.628H65.3001V48.8847C65.3001 48.213 64.7578 47.6532 64.0659 47.6532C63.374 47.6532 62.8317 48.1943 62.8317 48.8847V56.628H50.7329V45.8993H59.1478C60.8682 45.8993 62.3455 47.0561 62.7382 48.7354C62.8878 49.3885 63.561 49.799 64.2155 49.6497C64.87 49.5004 65.2814 48.8287 65.1318 48.1757C64.4773 45.3955 62.0089 43.455 59.1478 43.455H50.7329V41.9064C52.8085 40.4323 54.3045 38.212 54.8281 35.6557H56.3054C58.7925 35.6557 60.8121 33.6406 60.8121 31.159V28.8454C60.8121 27.4833 60.2137 26.2705 59.2413 25.4495V20.337C59.2413 18.3965 58.8299 16.512 58.0258 14.7581C57.7453 14.1424 57.016 13.8625 56.3989 14.1424C55.7818 14.4223 55.5013 15.1499 55.7818 15.7657C56.4363 17.2024 56.7729 18.7511 56.7729 20.337V24.3673C56.6046 24.3486 56.455 24.3486 56.2867 24.3486H55.0151V22.6507C55.0151 20.3744 53.463 18.4152 51.2565 17.8741C50.5459 17.7062 49.7605 17.7621 49.0686 18.0607L41.4577 21.214C41.1024 21.3633 40.7284 21.4379 40.3544 21.4379H32.5752C30.7987 21.4379 29.3215 22.688 28.9662 24.3486H27.6759C27.5076 24.3486 27.358 24.3673 27.1897 24.3673V20.337C27.1897 14.2357 32.1638 9.29115 38.26 9.29115H45.74C48.2645 9.29115 50.6394 10.1121 52.6215 11.6794C53.1451 12.1086 53.9305 12.0153 54.3419 11.4742C54.772 10.9518 54.6785 10.1681 54.1362 9.75761C53.1825 8.99261 52.1353 8.37687 51.0321 7.91041C51.2752 7.25736 51.4248 6.56699 51.4248 5.82065C51.4248 2.61137 48.8068 0.0178223 45.6091 0.0178223H38.3909C35.1745 0.0178223 32.5752 2.63003 32.5752 5.82065C32.5752 6.54833 32.7061 7.25736 32.9679 7.91041C28.1247 9.98151 24.74 14.7581 24.74 20.337V25.4495C23.7863 26.2705 23.1692 27.5019 23.1692 28.8454V31.159C23.1692 33.6406 25.1888 35.6557 27.6759 35.6557H29.1532C29.6955 38.2306 31.1915 40.4323 33.2484 41.9064V43.455H24.8335C21.4488 43.455 18.6812 46.2165 18.6812 49.5937V59.3335L11.3508 46.6457C10.9207 45.8807 10.2102 45.3396 9.34995 45.1157C8.50846 44.8918 7.61086 45.0037 6.86287 45.4515C5.29207 46.3471 4.74978 48.3622 5.66607 49.9296L12.6972 62.0763C11.5004 63.1958 10.6215 64.6512 10.2476 66.2932H2.05699C0.934995 66.2932 0 67.2074 0 68.3456V71.9467C0 73.0662 0.916296 73.9992 2.05699 73.9992H45.5156C46.1888 73.9992 46.7498 73.4581 46.7498 72.7677C46.7498 72.0773 46.2075 71.5362 45.5156 71.5362H2.46839V68.7561H81.5316V71.5362H36.9136C36.2404 71.5362 35.6794 72.0773 35.6794 72.7677C35.6794 73.4581 36.2217 73.9992 36.9136 73.9992H81.943C83.065 73.9992 84 73.0849 84 71.9467V68.3456C84 67.2261 83.0837 66.2932 81.943 66.2932ZM55.0712 26.7929H56.3428C57.4648 26.7929 58.3998 27.7072 58.3998 28.8454V31.159C58.3998 32.2785 57.4835 33.2115 56.3428 33.2115H55.0712V26.7929ZM38.3909 2.4621H45.6091C47.4604 2.4621 48.9751 3.97345 48.9751 5.82065C48.9751 6.28711 48.8816 6.73492 48.6946 7.14541C47.7409 6.94016 46.7498 6.82821 45.74 6.82821H38.26C37.2502 6.82821 36.2591 6.94016 35.3054 7.16407C35.1184 6.75358 35.0249 6.30577 35.0249 5.8393C35.0249 3.95479 36.5396 2.4621 38.3909 2.4621ZM28.9288 33.1928H27.6759C26.5539 33.1928 25.6189 32.2785 25.6189 31.1404V28.8267C25.6189 27.7072 26.5352 26.7743 27.6759 26.7743H28.9475V33.1928H28.9288ZM7.79786 48.6981C7.68566 48.5115 7.66696 48.2876 7.72306 48.0824C7.77916 47.8771 7.91006 47.6905 8.09706 47.5786C8.22796 47.504 8.35886 47.4666 8.50846 47.4666C8.58326 47.4666 8.65806 47.4853 8.71416 47.504C8.91986 47.5599 9.10686 47.6905 9.21906 47.8771L9.66785 48.6421L8.24666 49.4631L7.79786 48.6981ZM9.48085 51.6088L10.902 50.7879L16.2876 60.0985C15.7453 60.2478 15.2217 60.4344 14.7355 60.6769L9.48085 51.6088ZM12.7907 66.2932C13.5761 63.9608 15.7827 62.2816 18.382 62.2816C20.9813 62.2816 23.1879 63.9608 23.9733 66.2932H12.7907ZM33.2484 66.2932H26.5352C25.8807 63.4944 23.8237 61.2367 21.1496 60.2851V49.5751C21.1496 47.5413 22.8139 45.8993 24.8335 45.8993H33.2484V66.2932ZM31.3971 33.566V25.095C31.3971 24.4233 31.9581 23.8635 32.6313 23.8635H40.4105C41.1211 23.8635 41.7943 23.7329 42.4488 23.453L50.0597 20.2997C50.2841 20.2064 50.5085 20.1878 50.7142 20.2437C51.8175 20.505 52.5841 21.4939 52.5841 22.632V33.5473C52.5841 37.8388 49.0873 41.328 44.7863 41.328H39.1576C34.894 41.3466 31.3971 37.8575 31.3971 33.566ZM48.2832 43.1938V48.5862L45.3847 46.2911L46.3758 43.6789C47.049 43.567 47.6848 43.3991 48.2832 43.1938ZM43.7017 43.7909L42 48.269L40.2983 43.7909H43.7017ZM38.6153 46.2911L35.7168 48.5862V44.6865V43.1938C36.3339 43.4177 36.951 43.567 37.6055 43.6789L38.6153 46.2911ZM43.6643 59.5014V66.2932H35.7168V51.7021L39.5316 48.6794L40.0926 50.1348C40.3918 50.9371 41.1585 51.4596 42 51.4596C42.8415 51.4596 43.6082 50.9371 43.9261 50.1348L44.4871 48.6794L48.3019 51.7021V56.628H46.5441C44.9546 56.6467 43.6643 57.9341 43.6643 59.5014ZM76.3143 66.2932H46.114V59.5014C46.114 59.2775 46.301 59.0909 46.5254 59.0909H75.8842C76.1086 59.0909 76.2956 59.2775 76.2956 59.5014V66.2932H76.3143Z" fill="#262626"/>
<path d="M69.58 61.4801H52.8436C52.1704 61.4801 51.6094 62.0212 51.6094 62.7116C51.6094 63.3833 52.1517 63.943 52.8436 63.943H69.58C70.2532 63.943 70.8142 63.4019 70.8142 62.7116C70.8142 62.0212 70.2532 61.4801 69.58 61.4801Z" fill="#CA0100"/>
<path d="M23.4844 56.7963C23.4844 57.468 24.0267 58.0278 24.7186 58.0278H29.7114C30.3846 58.0278 30.9456 57.4867 30.9456 56.7963C30.9456 56.1246 30.4033 55.5648 29.7114 55.5648H24.7186C24.0267 55.5835 23.4844 56.1246 23.4844 56.7963Z" fill="#CA0100"/>
</svg>
